<?xml version="1.0" encoding="UTF-8" standalone="no"?>
<!-- Created with Inkscape (http://www.inkscape.org/) -->

<svg
   viewBox="0 0 320 64"
   version="1.1"
   id="svg14"
   xmlns="http://www.w3.org/2000/svg"
   xmlns:svg="http://www.w3.org/2000/svg">
  <path
     d="m 69.014739,54.0554 q -0.981334,-0.341334 -1.365334,-0.981334 -0.384001,-0.640001 -0.384001,-1.536001 0,-1.024001 0.384001,-2.261335 0.426667,-1.237334 0.896,-2.346669 0.853334,-1.877334 2.133335,-4.224003 1.322668,-2.389335 2.858669,-4.949337 1.578668,-2.602668 3.242669,-5.248004 1.706668,-2.688002 3.328003,-5.205337 1.450667,-2.218668 2.773335,-4.26667 1.365334,-2.090668 2.474668,-3.968003 0.384001,-0.64 1.024001,-1.621334 0.640001,-1.024001 1.322668,-2.218669 0.682667,-1.194667 1.365334,-2.517335 0.725334,-1.322667 1.280001,-2.560002 0.554667,-1.2800007 0.896001,-2.3893348 0.341333,-1.1520009 0.341333,-2.0053349 0,-1.0666674 -0.810667,-1.408001 -1.450668,-0.2986669 -3.413336,0.6400005 -1.920001,0.8960006 -4.224003,2.688002 -2.261335,1.7920013 -4.77867,4.2666702 -2.517335,2.432001 -5.120004,5.29067 -2.560002,2.816002 -5.077337,5.845338 -2.517335,3.029335 -4.821337,5.930671 -2.304002,2.901335 -4.309336,5.504004 -1.962669,2.560002 -3.413336,4.52267 l -2.218669,2.944002 q -0.981334,1.237335 -1.536001,1.408001 -0.554667,0.170667 -0.384,-1.152 0.08533,-0.597334 0.213333,-1.322668 0.128,-0.768001 0.341334,-1.578668 0.213333,-0.981334 0.426667,-2.090668 0.256,-1.152001 0.426667,-2.261335 0.213333,-1.152001 0.341334,-2.176002 0.128,-1.066667 0.128,-1.920001 0,-0.938668 -0.213334,-1.578668 -0.170667,-0.640001 -0.597334,-0.853334 -1.066667,-0.256 -2.901335,0.938667 -1.792001,1.152001 -3.968003,3.200003 -2.133335,2.005334 -4.52267,4.608003 -2.346669,2.602669 -4.565337,5.205337 -2.218668,2.602669 -4.13867,4.949337 -1.877334,2.346669 -3.072002,3.88267 l -1.194667,1.493334 v -0.04267 l -0.298667,0.341333 q 0.469333,0.08533 0.170666,0.597334 -0.298666,0.384 -0.682667,0.384 -0.469333,-0.128 -0.597334,-0.256 -0.213333,-0.298667 -0.256,-0.426667 0,-0.128 -0.04267,-0.213333 -0.04267,-0.682668 0.512,-2.090669 0.597334,-1.365334 1.578668,-3.157335 0.981334,-1.749335 2.261335,-3.797336 1.280001,-2.090669 2.602668,-4.13867 1.322668,-2.090668 2.602669,-3.968003 1.280001,-1.920002 2.261335,-3.413336 l 1.536001,-2.261335 q 1.066668,-1.578668 2.346669,-3.498669 1.322667,-1.920002 2.602668,-3.925337 1.322668,-2.005334 2.474669,-3.968003 1.194667,-1.962668 2.090668,-3.626669 0.298667,-0.554667 0.597334,-1.280001 0.341333,-0.725334 0.597334,-1.493334 0.298666,-0.768001 0.469333,-1.493335 0.170667,-0.768 0.170667,-1.3653341 0,-0.7680006 -0.341334,-1.2373343 -0.298666,-0.5120003 -1.109334,-0.5120003 -0.64,0 -1.493334,0.2986668 -1.493335,0.5120004 -3.114669,1.5786679 -1.578668,1.066667 -3.200003,2.517335 -1.578667,1.450668 -3.114669,3.114669 -1.536001,1.664001 -2.858668,3.328003 -1.280001,1.664001 -2.346669,3.157335 -1.024001,1.493335 -1.621334,2.645336 -0.597334,1.109334 -1.024001,2.176001 -0.426667,1.066668 -0.426667,1.920002 0,0.597333 0.256,1.066667 0.256,0.469334 0.853334,0.768001 h -0.04267 q 0.213334,0.08533 0.170667,0.341333 0,0.213334 -0.213333,0.469334 -0.256,0.256 -0.682667,0.08533 -1.450668,-0.725333 -1.450668,-2.389335 0,-0.810667 0.298667,-1.749334 0.341333,-0.981334 0.853334,-2.005335 0.938667,-1.834668 2.474668,-4.053337 1.578668,-2.218668 3.498669,-4.394669 1.920002,-2.218669 4.053337,-4.224004 2.133335,-2.005334 4.181336,-3.4560022 1.365335,-0.853334 2.773336,-1.4933344 1.408001,-0.6826672 2.517335,-0.6826672 1.109334,0 1.792001,0.9386674 0.170667,0.2986668 0.298667,0.7253338 0.128,0.3840003 0.128,0.853334 0,1.4080006 -0.810667,3.4133356 -0.810667,1.962668 -2.005335,4.096003 -1.194668,2.090669 -2.517335,4.13867 -1.280001,2.005335 -2.261335,3.456003 -1.109334,1.749334 -2.389335,3.584002 -1.237335,1.834668 -2.432002,3.62667 -2.560002,3.754669 -4.992004,7.466672 -2.432002,3.712003 -4.565337,7.296005 -0.256,0.384001 -0.64,1.066668 -0.384,0.725334 -0.810667,1.536001 -0.384001,0.810667 -0.768001,1.578668 -0.341333,0.810667 -0.469334,1.408001 l 0.896001,-1.152001 q 1.322668,-1.706668 3.029336,-3.840003 1.706668,-2.133335 3.584002,-4.39467 1.877335,-2.261335 3.840003,-4.480003 1.962668,-2.261335 3.88267,-4.224003 1.920001,-1.962668 3.669336,-3.456003 1.792001,-1.536001 3.242669,-2.346668 1.578668,-0.853334 2.645335,-0.853334 1.237335,0 1.621335,0.981334 0.426667,0.938667 0.426667,2.176001 0,0.682668 -0.04267,1.322668 -0.04267,0.597334 -0.128,1.109334 l -0.810667,4.224003 -0.853334,4.437337 0.426667,-0.554667 2.261335,-3.029336 q 1.493334,-1.962668 2.944002,-3.882669 1.450668,-1.962668 2.986669,-3.925336 0.853334,-1.109335 2.304002,-2.944003 1.450667,-1.877334 3.285335,-4.096003 1.877335,-2.218668 4.01067,-4.65067 2.133335,-2.474668 4.352003,-4.821337 2.261335,-2.346668 4.52267,-4.3946697 2.304002,-2.0906682 4.39467,-3.541336 2.133335,-1.4506677 4.01067,-2.1333349 1.877335,-0.6826672 3.285336,-0.2560002 1.280001,0.3840003 1.280001,2.0480015 0,1.4080011 -0.853334,3.4560026 -0.810668,2.0480017 -1.962669,4.2240027 -1.152,2.133335 -2.346668,4.096004 -1.194667,1.920001 -1.920001,3.072002 -1.066668,1.792001 -2.346669,3.712003 -1.237334,1.920001 -2.474668,3.840002 -1.408001,2.176002 -2.858669,4.437337 -1.450668,2.261335 -2.816002,4.52267 -1.365335,2.218668 -2.602669,4.39467 -1.194667,2.176002 -2.176001,4.181336 -0.341334,0.682668 -0.725334,1.450668 -0.341334,0.768001 -0.640001,1.536001 -0.256,0.768001 -0.469333,1.493335 -0.170667,0.725334 -0.170667,1.322667 0,0.725334 0.298667,1.194668 0.298667,0.512 1.024,0.725334 0.469334,0.170667 0.08533,0.64 -0.256,0.341334 -0.682667,0.341334 z"
     fill="#8c8c8c"
     stroke-width="0.5"
     stroke="#8c8c8c"
     id="path392" />
  <path
     d="m 89.580103,31.484716 q 0.08533,-0.08533 -0.128,0.170667 -0.170667,0.213334 -0.341334,0.426667 v -0.04267 q -0.426667,0.554667 -1.109334,1.408001 -0.64,0.853334 -1.365334,1.834668 -0.725334,0.981334 -1.450668,2.048001 -0.725334,1.024001 -1.322668,1.962668 -0.597333,0.896001 -0.938667,1.621335 -0.384,0.725334 -0.384,1.066667 0,0.384001 0.981334,-0.128 0.981334,-0.554667 2.986669,-2.176001 2.218668,-1.834668 4.138669,-3.49867 0.469334,-0.426667 0.938668,-0.853334 0.512,-0.426667 1.024001,-0.853334 0.853334,-0.682667 0.981334,-0.384 0.170666,0.256 -0.170667,0.938667 -0.426667,0.896001 -0.597334,1.578668 -0.170667,0.640001 -0.170667,1.109334 0,1.280001 1.322668,1.280001 0.896001,0 2.133335,-0.426667 1.237334,-0.426667 2.602668,-1.066667 1.365334,-0.682667 2.773334,-1.493334 1.45067,-0.853334 2.73067,-1.664002 0.55467,-0.341333 0.72533,0.08533 0,0.128 -0.0853,0.341333 -0.0853,0.170667 -0.256,0.256 -1.23733,0.768001 -2.77333,1.664002 -1.53601,0.896 -3.072007,1.664001 -1.536001,0.725334 -2.986669,1.194668 -1.450668,0.469333 -2.474668,0.384 -0.981334,-0.08533 -1.365335,-0.554667 -0.384,-0.469334 -0.384,-1.194668 0,-0.512 0.128,-1.066667 0.128,-0.554667 0.341334,-1.109334 l -0.853334,0.810667 q -0.938668,0.853334 -2.048002,1.792001 -1.109334,0.938668 -2.218668,1.792001 -1.066667,0.853334 -2.090668,1.536002 -0.981334,0.682667 -1.706668,0.981334 -1.194668,0.426667 -1.365335,-0.04267 -0.213333,-0.512 0.213334,-1.536001 0.384,-1.066668 1.280001,-2.474669 0.896001,-1.408001 1.877335,-2.816002 0.981334,-1.408001 1.920001,-2.602668 0.938667,-1.237335 1.450668,-1.920002 0.04267,-0.08533 0.08533,-0.128 0.08533,-0.04267 0.04267,0 0.426667,-0.554667 0.768,-0.554667 0.213334,0 0.298667,0.213334 0.08533,0.170666 -0.08533,0.384 z"
     fill="#8c8c8c"
     stroke-width="0.5"
     stroke="#8c8c8c"
     id="path394" />
  <path
     d="m 100.92947,41.767391 c 0,-0.682667 0.256,-1.607113 0.768,-2.773336 0.512,-1.166223 1.18045,-2.474668 2.00534,-3.925336 0.82489,-1.450667 1.77778,-2.972446 2.85867,-4.565337 1.08089,-1.621334 3.328,-4.821336 3.328,-4.821336 l 0.72536,-1.024005 c 0,0 3.08623,-4.238226 4.48,-6.058671 1.39378,-1.848891 2.47467,-3.271114 3.24267,-4.26667 l 0.42667,-0.512001 c 0.19911,-0.256 0.42667,-0.384 0.68267,-0.384 0.17067,0 0.27022,0.07111 0.29866,0.213334 0.0569,0.142222 0.0142,0.284444 -0.128,0.426667 v -0.04267 c -0.31289,0.398223 -0.73955,0.938667 -1.28,1.621334 -0.512,0.682667 -1.12355,1.493335 -1.83466,2.432002 -0.68267,0.910223 -1.43645,1.920002 -2.26134,3.029336 -0.79645,1.080889 -2.47467,3.413336 -2.47467,3.413336 l -0.72533,1.023994 c 0,0 -2.24711,3.185781 -3.328,4.778671 -1.08089,1.59289 -2.04801,3.100447 -2.90134,4.52267 -0.82489,1.422223 -1.49333,2.702224 -2.00533,3.840003 -0.512,1.137778 -0.768,2.019556 -0.768,2.645335 0,0.540445 0.19911,0.824889 0.59733,0.853334 0.79645,-0.08533 1.536,-0.270222 2.21867,-0.554667 0.71111,-0.284445 1.536,-0.668445 2.47467,-1.152001 1.64977,-0.853334 3.29955,-1.820446 4.94933,-2.901336 1.64978,-1.109334 3.17156,-2.176001 4.56534,-3.200002 0.36978,-0.199111 0.61156,-0.213335 0.72533,-0.04267 v -0.04267 c 0.0853,0.08533 0.0996,0.199111 0.0427,0.341333 -0.0569,0.142223 -0.15642,0.256001 -0.29867,0.341334 -0.65422,0.455111 -1.408,0.981334 -2.26133,1.578668 -0.82489,0.597333 -1.72089,1.208889 -2.688,1.834668 -0.93867,0.597333 -1.90579,1.194667 -2.90134,1.792001 -0.99555,0.597334 -1.94844,1.123557 -2.85867,1.578668 -0.91022,0.455111 -1.76355,0.810667 -2.56,1.066667 -0.768,0.256001 -1.408,0.369779 -1.92,0.341334 -0.42667,-0.02845 -0.72533,-0.170669 -0.896,-0.426667 -0.19911,-0.256 -0.29867,-0.583111 -0.29867,-0.981334 z"
     fill="#8c8c8c"
     stroke-width="0.5"
     stroke="#8c8c8c"
     id="path396" />
  <path
     d="m 120.12953,31.484716 q 0.0853,-0.08533 -0.128,0.170667 -0.17067,0.213334 -0.34134,0.426667 v -0.04267 q -0.42666,0.554667 -1.10933,1.408001 -0.64,0.853334 -1.36534,1.834668 -0.72533,0.981334 -1.45066,2.048001 -0.72534,1.024001 -1.32267,1.962668 -0.59734,0.896001 -0.93867,1.621335 -0.384,0.725334 -0.384,1.066667 0,0.384001 0.98134,-0.128 0.98133,-0.554667 2.98666,-2.176001 2.21867,-1.834668 4.13867,-3.49867 0.46934,-0.426667 0.93867,-0.853334 0.512,-0.426667 1.024,-0.853334 0.85334,-0.682667 0.98134,-0.384 0.17066,0.256 -0.17067,0.938667 -0.42667,0.896001 -0.59733,1.578668 -0.17067,0.640001 -0.17067,1.109334 0,1.280001 1.32267,1.280001 0.896,0 2.13333,-0.426667 1.23734,-0.426667 2.60267,-1.066667 1.36533,-0.682667 2.77334,-1.493334 1.45066,-0.853334 2.73066,-1.664002 0.55467,-0.341333 0.72534,0.08533 0,0.128 -0.0853,0.341333 -0.0853,0.170667 -0.256,0.256 -1.23733,0.768001 -2.77333,1.664002 -1.536,0.896 -3.072,1.664001 -1.536,0.725334 -2.98667,1.194668 -1.45067,0.469333 -2.47467,0.384 -0.98134,-0.08533 -1.36534,-0.554667 -0.384,-0.469334 -0.384,-1.194668 0,-0.512 0.128,-1.066667 0.128,-0.554667 0.34134,-1.109334 l -0.85334,0.810667 q -0.93866,0.853334 -2.048,1.792001 -1.10933,0.938668 -2.21867,1.792001 -1.06666,0.853334 -2.09066,1.536002 -0.98134,0.682667 -1.70667,0.981334 -1.19467,0.426667 -1.36534,-0.04267 -0.21333,-0.512 0.21334,-1.536001 0.384,-1.066668 1.28,-2.474669 0.896,-1.408001 1.87733,-2.816002 0.98134,-1.408001 1.92,-2.602668 0.93867,-1.237335 1.45067,-1.920002 0.0427,-0.08533 0.0853,-0.128 0.0853,-0.04267 0.0427,0 0.42667,-0.554667 0.768,-0.554667 0.21334,0 0.29867,0.213334 0.0853,0.170666 -0.0853,0.384 z"
     fill="#8c8c8c"
     stroke-width="0.5"
     stroke="#8c8c8c"
     id="path398" />
  <path
     d="m 141.80424,32.764717 q -0.17067,0.08533 -0.21334,0.08533 v 0.426667 q -0.0853,0.725334 -0.72533,2.090668 -0.64,1.322668 -1.62134,2.944002 2.00534,-0.853334 3.88267,-1.578668 1.87734,-0.725333 3.66934,-1.450667 l 2.73067,-1.066668 q 0.55466,-0.128 0.55466,0.384 -0.0853,0.298667 -0.55466,0.554668 l -1.28,0.469333 q -2.26134,0.853334 -4.73601,1.877335 -2.47467,0.981334 -5.03467,2.048002 l 0.0427,-0.08533 q -0.81067,1.322668 -1.74934,2.688002 -0.896,1.322668 -1.74933,2.560002 -0.85333,1.237334 -1.62133,2.261335 -0.76801,1.066668 -1.32267,1.749335 -0.68267,0.853334 -1.70667,2.048001 -1.06667,1.237334 -2.304,2.560002 -1.23734,1.365334 -2.64534,2.688002 -1.408,1.365334 -2.77333,2.389335 -1.408,1.066668 -2.73067,1.706668 -1.36534,0.682667 -2.47467,0.682667 -1.024,0 -1.792,-0.597333 -1.06667,-0.810668 -1.06667,-2.346669 0,-0.810667 0.34134,-1.792001 0.29866,-0.981334 0.896,-2.005335 0.55466,-1.024001 1.36533,-2.048002 0.81067,-1.024 1.792,-1.920001 1.792,-1.664001 4.01067,-3.200002 2.21867,-1.536002 4.65067,-2.944003 2.432,-1.408001 4.992,-2.645335 2.60267,-1.280001 5.16268,-2.389335 l -0.0427,0.08533 q 0.85333,-1.408001 1.57867,-2.730668 0.768,-1.365335 1.06666,-2.133335 l -0.0427,0.04267 -0.55467,0.426666 h 0.0427 q -0.68267,0.597334 -1.83467,1.536002 -1.152,0.938667 -2.34667,1.834668 -1.19467,0.853334 -2.26133,1.450667 -1.02401,0.554667 -1.53601,0.426667 -0.55466,-0.256 -0.46933,-0.810667 0.0427,-0.597334 0.42667,-1.280001 0.384,-0.725334 0.93867,-1.450668 0.59733,-0.725333 1.06666,-1.194667 1.57867,-1.536001 2.944,-2.474669 1.40801,-0.981334 2.47467,-1.450667 1.10934,-0.469334 1.87734,-0.512001 0.81067,-0.04267 1.19467,0.170667 0.46933,0.256 0.384,0.810667 -0.0853,0.512001 -0.896,1.109334 z m -1.92001,0.725334 q 0.256,-0.256 0.55467,-0.512 0.34133,-0.298667 0.64,-0.384 0,-0.256001 0.29867,-0.469334 0.29866,-0.298667 0.0853,-0.469334 -0.29867,-0.08533 -0.93867,0.04267 -0.59733,0.128 -1.49333,0.554667 -0.85333,0.426667 -2.00534,1.237334 -1.10933,0.810668 -2.432,2.090669 -0.256,0.298666 -0.72533,0.810667 -0.42667,0.469334 -0.81067,0.981334 -0.34133,0.512 -0.512,0.981334 -0.21333,0.426667 0,0.554667 0.34134,0 1.10934,-0.512 0.81066,-0.554667 1.74933,-1.280001 0.98133,-0.725334 1.96267,-1.493335 0.98133,-0.810667 1.62133,-1.365334 l 0.55467,-0.469334 -0.0427,0.04267 z m -4.82133,9.770674 q 0.21333,-0.341333 0.768,-1.152001 0.55466,-0.853334 1.19466,-1.920001 -4.52267,2.005335 -8.87467,4.437337 -4.39467,2.432001 -7.76534,5.333337 -2.432,2.090668 -3.54133,4.096003 -1.10934,2.005335 -1.10934,3.456003 0,1.066667 0.55467,1.664001 0.512,0.597334 1.49333,0.597334 1.53601,0 3.62667,-1.408001 1.83467,-1.280001 3.75467,-3.157336 1.92,-1.877335 3.75467,-3.968003 1.792,-2.090668 3.41334,-4.224003 1.57867,-2.090668 2.73067,-3.75467 z"
     fill="#8c8c8c"
     stroke-width="0.5"
     stroke="#8c8c8c"
     id="path400" />
  <path
     d="m 150.16689,34.599385 c -0.768,1.33689 -1.39378,2.560002 -1.87734,3.669337 -0.48355,1.080889 -0.72533,1.97689 -0.72533,2.688002 0,0.796445 0.36978,1.194667 1.10933,1.194667 0.59733,0 1.45067,-0.256 2.56001,-0.768 1.13777,-0.512001 2.58844,-1.33689 4.352,-2.474669 1.08089,-0.739556 2.14755,-1.479112 3.2,-2.218668 l 3.15734,-2.304002 c 0.0853,-0.113778 0.19911,-0.170667 0.34133,-0.170667 0.17067,-0.02845 0.29867,0.01422 0.384,0.128 0.0569,0.05689 0.0569,0.156442 0,0.298667 -0.0569,0.142223 -0.1422,0.256001 -0.256,0.341334 -0.79645,0.597333 -1.76356,1.308445 -2.90134,2.133335 -1.13777,0.796445 -2.30399,1.59289 -3.49866,2.389335 -1.19467,0.768001 -2.37512,1.479112 -3.54134,2.133335 -1.13778,0.625778 -2.13334,1.066667 -2.98667,1.322667 -0.42667,0.113778 -0.85333,0.170667 -1.28,0.170667 -0.65422,0 -1.10933,-0.156445 -1.36533,-0.469334 -0.256,-0.341333 -0.384,-0.768 -0.384,-1.28 0,-0.483556 0.0995,-1.024001 0.29866,-1.621335 0.19911,-0.625778 0.44089,-1.251556 0.72534,-1.877335 0.28444,-0.654223 0.58311,-1.280001 0.896,-1.877334 0.31289,-0.597334 0.59733,-1.109335 0.85333,-1.536002 0.0569,-0.08533 0.1422,-0.170667 0.256,-0.256 0.11378,-0.08533 0.24178,-0.142222 0.384,-0.170667 0.17067,-0.05689 0.29867,-0.02844 0.384,0.08533 0.0853,0.08533 0.0569,0.241778 -0.0853,0.469333 z"
     fill="#8c8c8c"
     stroke-width="0.5"
     stroke="#8c8c8c"
     id="path402" />
  <path
     d="m 194.45496,54.0554 q -1.62134,-0.170667 -2.77334,-1.365334 -1.10933,-1.152001 -1.83466,-2.773336 -0.72534,-1.578668 -1.15201,-3.328002 -0.42666,-1.749335 -0.64,-3.114669 -0.21333,-1.109334 -0.34133,-2.517335 -0.128,-1.408001 -0.128,-2.858669 0,-0.981334 0.0427,-1.920002 0.0853,-0.938667 0.256,-1.792001 0.21333,-0.938667 0.59733,-1.024001 0.42667,-0.128 1.024,0 0.21334,0.04267 0.384,0.08533 0.17067,0.04267 0.42667,0.08533 1.152,0.128 2.432,0.128 2.73067,0 5.63201,-0.682667 2.944,-0.725334 5.80267,-2.133335 2.90133,-1.450668 5.58933,-3.626669 2.68801,-2.218669 4.99201,-5.205338 2.176,-2.816002 3.24267,-5.41867 1.06666,-2.645336 1.06666,-4.906671 0,-2.6880016 -1.70666,-4.5653363 -1.70667,-1.8773348 -4.69334,-2.6026686 -1.36534,-0.2560002 -2.85867,-0.2560002 -3.584,0 -7.76534,1.4506677 -4.18134,1.4506678 -8.36267,3.8826696 -4.13867,2.4320018 -8.02134,5.5893378 -3.88267,3.157335 -6.86934,6.570671 -0.98133,1.152001 -1.83467,2.346669 -0.85333,1.194667 -1.49333,2.346668 -0.64,1.152001 -1.024,2.218668 -0.384,1.066668 -0.384,2.005335 0,1.493335 0.98133,2.474669 h -0.0427 q 0.34134,0.256 -0.0853,0.682667 -0.21333,0.213333 -0.46933,0.256 -0.21334,0 -0.29867,-0.128 -1.19467,-1.152001 -1.19467,-2.944002 0,-1.066668 0.42667,-2.346669 0.46933,-1.280001 1.23733,-2.602668 0.768,-1.365335 1.79201,-2.730669 1.024,-1.365334 2.176,-2.645335 2.09067,-2.346669 4.608,-4.52267 2.51734,-2.218669 5.20534,-4.13867 2.73067,-1.962668 5.54667,-3.5840027 2.85867,-1.6213345 5.67467,-2.7733354 2.816,-1.1520008 5.504,-1.7920013 2.68801,-0.6400005 5.12001,-0.6400005 2.90133,0 5.33333,0.9813341 2.30401,0.9813341 3.41334,2.8160021 1.10933,1.834668 1.10933,4.3093367 0,1.536001 -0.55466,3.328002 -0.512,1.792002 -1.536,3.669336 -0.98134,1.877335 -2.38934,3.797337 -1.408,1.920001 -3.15733,3.712002 -2.43201,2.304002 -5.03467,3.968003 -2.56001,1.621335 -5.16268,2.730669 -2.56,1.066667 -5.07733,1.578668 -2.47467,0.512 -4.73601,0.512 -1.83466,0 -3.49867,-0.256 -0.0853,0.725334 -0.17066,1.664001 -0.0427,0.938668 -0.0427,1.877335 0,2.304002 0.34134,4.864004 0.384,2.560001 1.10933,4.736003 0.768,2.218668 1.92,3.75467 1.152,1.536001 2.77334,1.792001 0.55466,0 0.384,0.384 -0.21334,0.213334 -0.42667,0.384 -0.21333,0.213334 -0.384,0.213334 z m 2.00533,-41.258697 q 1.06667,-0.08533 1.49334,0.384 0.42667,0.469334 0.42667,1.237334 0,0.640001 -0.21334,1.408001 -0.21333,0.768001 -0.55467,1.578668 -0.29866,0.768001 -0.68266,1.536001 -0.34134,0.725334 -0.64,1.280001 -1.664,3.200002 -4.09601,7.082672 -2.432,3.840003 -5.20533,7.893339 -2.73067,4.01067 -5.54667,7.978673 -2.81601,3.925336 -5.29067,7.338672 -0.59734,0.768001 -1.15201,1.536001 -0.55466,0.810667 -1.10933,1.621335 -0.128,0.170666 -0.34133,0.256 -0.21334,0.128 -0.34134,0.128 -0.21333,0 -0.256,-0.213334 -0.0427,-0.170666 0.0427,-0.384 l 1.45067,-2.005335 q 2.432,-3.370669 5.16267,-7.168005 2.77333,-3.797336 5.46134,-7.722672 2.688,-3.925337 5.12,-7.76534 2.432,-3.840002 4.30934,-7.253338 0.29866,-0.512001 0.768,-1.365335 0.46933,-0.896 0.896,-1.877334 0.46933,-0.981334 0.768,-1.920002 0.34133,-0.938667 0.34133,-1.621334 0,-1.024001 -1.10933,-0.981334 -0.64,0 -0.384,-0.512001 0.0853,-0.170667 0.256,-0.298667 0.21333,-0.128 0.384,-0.170666 z"
     fill="#8c8c8c"
     stroke-width="0.5"
     stroke="#8c8c8c"
     id="path404" />
  <path
     d="m 228.63098,31.484716 q 0.0853,-0.08533 -0.128,0.170667 -0.17066,0.213334 -0.34133,0.426667 v -0.04267 q -0.42667,0.554667 -1.10933,1.408001 -0.64,0.853334 -1.36534,1.834668 -0.72533,0.981334 -1.45067,2.048001 -0.72533,1.024001 -1.32266,1.962668 -0.59734,0.896001 -0.93867,1.621335 -0.384,0.725334 -0.384,1.066667 0,0.384001 0.98133,-0.128 0.98134,-0.554667 2.98667,-2.176001 2.21867,-1.834668 4.13867,-3.49867 0.46933,-0.426667 0.93867,-0.853334 0.512,-0.426667 1.024,-0.853334 0.85333,-0.682667 0.98133,-0.384 0.17067,0.256 -0.17066,0.938667 -0.42667,0.896001 -0.59734,1.578668 -0.17066,0.640001 -0.17066,1.109334 0,1.280001 1.32266,1.280001 0.896,0 2.13334,-0.426667 1.23733,-0.426667 2.60267,-1.066667 1.36533,-0.682667 2.77333,-1.493334 1.45067,-0.853334 2.73067,-1.664002 0.55467,-0.341333 0.72533,0.08533 0,0.128 -0.0853,0.341333 -0.0853,0.170667 -0.256,0.256 -1.23733,0.768001 -2.77333,1.664002 -1.53601,0.896 -3.07201,1.664001 -1.536,0.725334 -2.98667,1.194668 -1.45066,0.469333 -2.47466,0.384 -0.98134,-0.08533 -1.36534,-0.554667 -0.384,-0.469334 -0.384,-1.194668 0,-0.512 0.128,-1.066667 0.128,-0.554667 0.34134,-1.109334 l -0.85334,0.810667 q -0.93867,0.853334 -2.048,1.792001 -1.10933,0.938668 -2.21867,1.792001 -1.06667,0.853334 -2.09067,1.536002 -0.98133,0.682667 -1.70666,0.981334 -1.19467,0.426667 -1.36534,-0.04267 -0.21333,-0.512 0.21333,-1.536001 0.384,-1.066668 1.28001,-2.474669 0.896,-1.408001 1.87733,-2.816002 0.98133,-1.408001 1.92,-2.602668 0.93867,-1.237335 1.45067,-1.920002 0.0427,-0.08533 0.0853,-0.128 0.0853,-0.04267 0.0427,0 0.42667,-0.554667 0.768,-0.554667 0.21333,0 0.29867,0.213334 0.0853,0.170666 -0.0853,0.384 z"
     fill="#8c8c8c"
     stroke-width="0.5"
     stroke="#8c8c8c"
     id="path408" />
  <path
     d="m 244.07636,34.642052 q -0.59733,0.938668 -1.536,2.389335 -0.93867,1.408001 -1.792,2.944002 l 1.28,-1.536001 q 0.55467,-0.64 1.024,-1.237334 0.46933,-0.597334 0.85334,-1.024001 l 0.256,-0.298667 q 0.59733,-0.682667 1.62133,-1.749334 1.024,-1.066668 2.09067,-1.962668 1.10933,-0.896001 2.09067,-1.322668 0.98133,-0.469334 1.49333,0.128 0.384,0.426667 0.256,1.493335 -0.128,1.024 -0.384,2.261335 -0.17067,0.725333 -0.34133,1.536001 -0.128,0.768 -0.128,1.365334 0,0.597334 0.21333,0.981334 0.21333,0.384 0.768,0.384 0.21333,0 0.59733,-0.08533 0.38401,-0.128 0.72534,-0.256 0.72533,-0.298667 1.57867,-0.768001 0.85333,-0.469333 1.70666,-0.981334 0.85334,-0.512 1.66401,-1.024001 0.81066,-0.554667 1.49333,-1.024 l 0.768,-0.512001 q 0.55467,-0.341333 0.72533,0.08533 0,0.128 -0.0853,0.341333 -0.0853,0.170667 -0.29867,0.256 l -1.152,0.768001 q -1.06666,0.725334 -2.13333,1.408001 -1.024,0.682667 -2.13334,1.280001 -1.408,0.810667 -2.38933,1.152001 -0.98134,0.341333 -1.57867,0.341333 -0.896,0 -1.23733,-0.512 -0.34134,-0.554667 -0.34134,-1.408001 0,-0.725334 0.128,-1.536001 0.17067,-0.810667 0.384,-1.621335 0.21334,-0.981334 0.34134,-1.792001 0.17066,-0.853334 -0.0427,-1.280001 -0.17067,-0.384 -0.81067,-0.08533 -0.59733,0.298667 -1.45066,1.066667 -0.85334,0.768001 -1.87734,1.834668 -0.98133,1.066668 -2.00533,2.176002 -0.98134,1.109334 -1.83467,2.176001 -0.85334,1.024001 -1.45067,1.706668 v -0.04267 l -0.85333,1.066667 -0.0853,0.08533 q -0.17066,0.213333 -0.384,0.469333 -0.256,0.256 -0.46933,0.512001 -0.256,0.213333 -0.512,0.298666 -0.256,0.08533 -0.42667,-0.04267 -0.128,-0.08533 0.128,-0.682667 0.256,-0.640001 0.768,-1.493335 0.46934,-0.896001 1.10934,-1.920001 0.59733,-1.066668 1.152,-1.962668 0.59733,-0.938668 1.024,-1.621335 0.46933,-0.725334 0.59733,-0.938667 0.29867,-0.384001 0.64,-0.384001 0.59734,0 0.256,0.597334 z"
     fill="#8c8c8c"
     stroke-width="0.5"
     stroke="#8c8c8c"
     id="path410" />
  <path
     d="m 267.415,32.764717 q -0.17067,0.08533 -0.21333,0.08533 v 0.426667 q -0.0853,0.725334 -0.72534,2.090668 -0.64,1.322668 -1.62133,2.944002 2.00533,-0.853334 3.88267,-1.578668 1.87733,-0.725333 3.66933,-1.450667 l 2.73067,-1.066668 q 0.55467,-0.128 0.55467,0.384 -0.0853,0.298667 -0.55467,0.554668 l -1.28,0.469333 q -2.26133,0.853334 -4.736,1.877335 -2.47467,0.981334 -5.03467,2.048002 l 0.0427,-0.08533 q -0.81066,1.322668 -1.74933,2.688002 -0.896,1.322668 -1.74934,2.560002 -0.85333,1.237334 -1.62133,2.261335 -0.768,1.066668 -1.32267,1.749335 -0.68267,0.853334 -1.70667,2.048001 -1.06666,1.237334 -2.304,2.560002 -1.23733,1.365334 -2.64533,2.688002 -1.408,1.365334 -2.77334,2.389335 -1.408,1.066668 -2.73067,1.706668 -1.36533,0.682667 -2.47467,0.682667 -1.024,0 -1.792,-0.597333 -1.06666,-0.810668 -1.06666,-2.346669 0,-0.810667 0.34133,-1.792001 0.29867,-0.981334 0.896,-2.005335 0.55467,-1.024001 1.36533,-2.048002 0.81067,-1.024 1.792,-1.920001 1.79201,-1.664001 4.01067,-3.200002 2.21867,-1.536002 4.65067,-2.944003 2.43201,-1.408001 4.99201,-2.645335 2.60267,-1.280001 5.16267,-2.389335 l -0.0427,0.08533 q 0.85334,-1.408001 1.57867,-2.730668 0.768,-1.365335 1.06667,-2.133335 l -0.0427,0.04267 -0.55467,0.426666 h 0.0427 q -0.68267,0.597334 -1.83467,1.536002 -1.152,0.938667 -2.34667,1.834668 -1.19466,0.853334 -2.26133,1.450667 -1.024,0.554667 -1.536,0.426667 -0.55467,-0.256 -0.46934,-0.810667 0.0427,-0.597334 0.42667,-1.280001 0.384,-0.725334 0.93867,-1.450668 0.59733,-0.725333 1.06667,-1.194667 1.57866,-1.536001 2.944,-2.474669 1.408,-0.981334 2.47467,-1.450667 1.10933,-0.469334 1.87733,-0.512001 0.81067,-0.04267 1.19467,0.170667 0.46933,0.256 0.384,0.810667 -0.0853,0.512001 -0.896,1.109334 z m -1.92,0.725334 q 0.256,-0.256 0.55466,-0.512 0.34134,-0.298667 0.64,-0.384 0,-0.256001 0.29867,-0.469334 0.29867,-0.298667 0.0853,-0.469334 -0.29867,-0.08533 -0.93867,0.04267 -0.59734,0.128 -1.49334,0.554667 -0.85333,0.426667 -2.00533,1.237334 -1.10934,0.810668 -2.432,2.090669 -0.256,0.298666 -0.72534,0.810667 -0.42666,0.469334 -0.81066,0.981334 -0.34134,0.512 -0.512,0.981334 -0.21334,0.426667 0,0.554667 0.34133,0 1.10933,-0.512 0.81067,-0.554667 1.74933,-1.280001 0.98134,-0.725334 1.96267,-1.493335 0.98134,-0.810667 1.62134,-1.365334 l 0.55466,-0.469334 -0.0427,0.04267 z m -4.82134,9.770674 q 0.21333,-0.341333 0.768,-1.152001 0.55467,-0.853334 1.19467,-1.920001 -4.52267,2.005335 -8.87467,4.437337 -4.39467,2.432001 -7.76534,5.333337 -2.43201,2.090668 -3.54134,4.096003 -1.10933,2.005335 -1.10933,3.456003 0,1.066667 0.55466,1.664001 0.512,0.597334 1.49334,0.597334 1.536,0 3.62667,-1.408001 1.83466,-1.280001 3.75467,-3.157336 1.92,-1.877335 3.75467,-3.968003 1.792,-2.090668 3.41333,-4.224003 1.57867,-2.090668 2.73067,-3.75467 z"
     fill="#8c8c8c"
     stroke-width="0.5"
     stroke="#8c8c8c"
     id="path412" />
  <path
     d="m 278.16699,31.484716 q 0.0853,-0.08533 -0.128,0.170667 -0.17066,0.213334 -0.34133,0.426667 v -0.04267 q -0.42667,0.554667 -1.10933,1.408001 -0.64,0.853334 -1.36534,1.834668 -0.72533,0.981334 -1.45067,2.048001 -0.72533,1.024001 -1.32266,1.962668 -0.59734,0.896001 -0.93867,1.621335 -0.384,0.725334 -0.384,1.066667 0,0.384001 0.98133,-0.128 0.98134,-0.554667 2.98667,-2.176001 2.21867,-1.834668 4.13867,-3.49867 0.46934,-0.426667 0.93867,-0.853334 0.512,-0.426667 1.024,-0.853334 0.85333,-0.682667 0.98133,-0.384 0.17067,0.256 -0.17066,0.938667 -0.42667,0.896001 -0.59734,1.578668 -0.17066,0.640001 -0.17066,1.109334 0,1.280001 1.32266,1.280001 0.896,0 2.13334,-0.426667 1.23733,-0.426667 2.60267,-1.066667 1.36533,-0.682667 2.77333,-1.493334 1.45067,-0.853334 2.73067,-1.664002 0.55467,-0.341333 0.72534,0.08533 0,0.128 -0.0853,0.341333 -0.0853,0.170667 -0.256,0.256 -1.23733,0.768001 -2.77333,1.664002 -1.536,0.896 -3.07201,1.664001 -1.536,0.725334 -2.98666,1.194668 -1.45067,0.469333 -2.47467,0.384 -0.98134,-0.08533 -1.36534,-0.554667 -0.384,-0.469334 -0.384,-1.194668 0,-0.512 0.128,-1.066667 0.128,-0.554667 0.34134,-1.109334 l -0.85334,0.810667 q -0.93867,0.853334 -2.048,1.792001 -1.10933,0.938668 -2.21867,1.792001 -1.06667,0.853334 -2.09067,1.536002 -0.98133,0.682667 -1.70666,0.981334 -1.19467,0.426667 -1.36534,-0.04267 -0.21333,-0.512 0.21334,-1.536001 0.384,-1.066668 1.28,-2.474669 0.896,-1.408001 1.87733,-2.816002 0.98133,-1.408001 1.92,-2.602668 0.93867,-1.237335 1.45067,-1.920002 0.0427,-0.08533 0.0853,-0.128 0.0853,-0.04267 0.0427,0 0.42667,-0.554667 0.768,-0.554667 0.21333,0 0.29867,0.213334 0.0853,0.170666 -0.0853,0.384 z"
     fill="#8c8c8c"
     stroke-width="0.5"
     stroke="#8c8c8c"
     id="path414" />
  <path
     d="m 109.78781,25.608549 c 0,0 -2.67378,0.355556 -3.92534,0.554667 -1.22311,0.170667 -2.304,0.327111 -3.24267,0.469333 l -0.55466,0.08533 c -0.28445,0.05689 -0.52623,-0.04267 -0.72534,-0.298667 -0.11378,-0.113778 -0.14221,-0.213334 -0.0853,-0.298667 0.0285,-0.113778 0.1138,-0.199111 0.256,-0.256 0.0569,-0.02845 0.15642,-0.04267 0.29866,-0.04267 0.11378,-0.02845 0.24178,-0.05689 0.38401,-0.08533 0.36977,-0.05689 0.85333,-0.127998 1.45066,-0.213334 0.59733,-0.113778 1.25156,-0.213334 1.96267,-0.298667 0.73956,-0.113778 1.52178,-0.227556 2.34667,-0.341333 0.85333,-0.113778 2.56,-0.298667 2.56,-0.298667 l 1.152,-0.128003 c 0,0 1.90578,-0.156445 2.90134,-0.213334 0.99555,-0.08533 1.89155,-0.128 2.688,-0.128 0.82489,0 1.56444,0.04267 2.21867,0.128 0.68267,0.08533 1.22311,0.227556 1.62133,0.426667 0.42667,0.170667 0.69689,0.412445 0.81067,0.725334 0.11378,0.312889 0.0284,0.69689 -0.256,1.152001 -0.11378,0.113778 -0.32711,0.09956 -0.64,-0.04267 -0.36978,-0.142222 -0.52622,-0.312889 -0.46933,-0.512 0.22755,-0.398223 0.22755,-0.654223 0,-0.768001 -0.22756,-0.113778 -0.79645,-0.199111 -1.70667,-0.256 -1.05245,-0.05689 -2.26134,-0.02844 -3.62667,0.08533 -1.36533,0.113778 -4.26667,0.426667 -4.26667,0.426667 z"
     fill="#8c8c8c"
     stroke-width="0.5"
     stroke="#8c8c8c"
     id="path396-2"
     style="fill:#8c8c8c" />
  <path
     d="m 153.41545,25.998418 c -0.48355,0.08533 -0.62577,-0.07111 -0.42666,-0.469334 v 0.04267 c 0.0285,-0.113778 0.0996,-0.213334 0.21333,-0.298667 0.14222,-0.113778 0.28444,-0.199111 0.42667,-0.256 0.62577,-0.113778 0.93866,0.01422 0.93866,0.384 0.0285,0.341333 -0.0995,0.768 -0.384,1.280001 -0.28444,0.512 -0.62577,1.038223 -1.024,1.578668 -0.39822,0.540445 -0.69689,0.938667 -0.896,1.194667 -0.0853,0.113778 -0.19911,0.213334 -0.34133,0.298667 -0.14222,0.05689 -0.256,0.08533 -0.34133,0.08533 -0.17067,0 -0.28445,-0.05689 -0.34134,-0.170667 -0.0569,-0.142223 2e-5,-0.298667 0.17067,-0.469334 v 0.04267 c 0.0569,-0.08533 0.21331,-0.298667 0.46933,-0.640001 0.28445,-0.369778 0.55467,-0.753778 0.81067,-1.152001 0.28445,-0.398222 0.512,-0.739555 0.68267,-1.024 0.17067,-0.312889 0.1849,-0.455112 0.0427,-0.426667 z"
     fill="#8c8c8c"
     stroke-width="0.5"
     stroke="#8c8c8c"
     id="path402-7"
     style="opacity:0.92;fill:#8c8c8c" />
  <path
     d="m 212.85287,35.515934 c -0.768,1.33689 -1.39378,2.560002 -1.87734,3.669337 -0.48355,1.080889 -0.72533,1.97689 -0.72533,2.688002 0,0.796445 0.36978,1.194667 1.10933,1.194667 0.59733,0 1.45067,-0.256 2.56001,-0.768 1.13777,-0.512001 2.58844,-1.33689 4.352,-2.474669 1.08089,-0.739556 2.14755,-1.479112 3.2,-2.218668 l 3.15734,-2.304002 c 0.0853,-0.113778 0.19911,-0.170667 0.34133,-0.170667 0.17067,-0.02845 0.29867,0.01422 0.384,0.128 0.0569,0.05689 0.0569,0.156442 0,0.298667 -0.0569,0.142223 -0.1422,0.256001 -0.256,0.341334 -0.79645,0.597333 -1.76356,1.308445 -2.90134,2.133335 -1.13777,0.796445 -2.30399,1.59289 -3.49866,2.389335 -1.19467,0.768001 -2.37512,1.479112 -3.54134,2.133335 -1.13778,0.625778 -2.13334,1.066667 -2.98667,1.322667 -0.42667,0.113778 -0.85333,0.170667 -1.28,0.170667 -0.65422,0 -1.10933,-0.156445 -1.36533,-0.469334 -0.256,-0.341333 -0.384,-0.768 -0.384,-1.28 0,-0.483556 0.0995,-1.024001 0.29866,-1.621335 0.19911,-0.625778 0.44089,-1.251556 0.72534,-1.877335 0.28444,-0.654223 0.58311,-1.280001 0.896,-1.877334 0.31289,-0.597334 0.59733,-1.109335 0.85333,-1.536002 0.0569,-0.08533 0.1422,-0.170667 0.256,-0.256 0.11378,-0.08533 0.24178,-0.142222 0.384,-0.170667 0.17067,-0.05689 0.29867,-0.02844 0.384,0.08533 0.0853,0.08533 0.0569,0.241778 -0.0853,0.469333 z"
     fill="#8c8c8c"
     stroke-width="0.5"
     stroke="#8c8c8c"
     id="path402-1" />
  <path
     d="m 216.10143,26.914967 c -0.48355,0.08533 -0.62577,-0.07111 -0.42666,-0.469334 v 0.04267 c 0.0285,-0.113778 0.0996,-0.213334 0.21333,-0.298667 0.14222,-0.113778 0.28444,-0.199111 0.42667,-0.256 0.62577,-0.113778 0.93866,0.01422 0.93866,0.384 0.0285,0.341333 -0.0995,0.768 -0.384,1.280001 -0.28444,0.512 -0.62577,1.038223 -1.024,1.578668 -0.39822,0.540445 -0.69689,0.938667 -0.896,1.194667 -0.0853,0.113778 -0.19911,0.213334 -0.34133,0.298667 -0.14222,0.05689 -0.256,0.08533 -0.34133,0.08533 -0.17067,0 -0.28445,-0.05689 -0.34134,-0.170667 -0.0569,-0.142223 2e-5,-0.298667 0.17067,-0.469334 v 0.04267 c 0.0569,-0.08533 0.21331,-0.298667 0.46933,-0.640001 0.28445,-0.369778 0.55467,-0.753778 0.81067,-1.152001 0.28445,-0.398222 0.512,-0.739555 0.68267,-1.024 0.17067,-0.312889 0.1849,-0.455112 0.0427,-0.426667 z"
     fill="#8c8c8c"
     stroke-width="0.5"
     stroke="#8c8c8c"
     id="path402-7-8"
     style="opacity:0.92;fill:#8c8c8c" />
</svg>
