<?xml version="1.0" encoding="UTF-8" standalone="no"?>
<svg
   svg:contrastcolor="25142d"
   svg:template="Contrast"
   svg:presentation="2.5"
   svg:layouttype="undefined"
   svg:specialfontid="undefined"
   svg:id1="705"
   svg:id2="1048"
   svg:companyname="mutugi"
   svg:companytagline=""
   version="1.1"
   viewBox="0 0 550 470"
   id="svg63"
   sodipodi:docname="monogram-abstract.svg"
   inkscape:version="1.2.1 (9c6d41e410, 2022-07-14)"
   xmlns:inkscape="http://www.inkscape.org/namespaces/inkscape"
   xmlns:sodipodi="http://sodipodi.sourceforge.net/DTD/sodipodi-0.dtd"
   xmlns="http://www.w3.org/2000/svg"
   xmlns:svg="http://www.w3.org/2000/svg">
  <sodipodi:namedview
     id="namedview65"
     pagecolor="#ffffff"
     bordercolor="#000000"
     borderopacity="0.25"
     inkscape:showpageshadow="2"
     inkscape:pageopacity="0.0"
     inkscape:pagecheckerboard="0"
     inkscape:deskcolor="#d1d1d1"
     showgrid="false"
     inkscape:zoom="1.8659574"
     inkscape:cx="275.19384"
     inkscape:cy="228.30103"
     inkscape:window-width="1920"
     inkscape:window-height="1057"
     inkscape:window-x="-8"
     inkscape:window-y="-8"
     inkscape:window-maximized="1"
     inkscape:current-layer="svg63" />
  <defs
     id="defs7">
    <linearGradient
       x1="122.82905"
       y1="235"
       x2="427.17095"
       y2="235"
       gradientUnits="userSpaceOnUse"
       id="color-1393665752">
      <stop
         offset="0"
         stop-color="#7b4397"
         id="stop2" />
      <stop
         offset="1"
         stop-color="#dc2430"
         id="stop4" />
    </linearGradient>
  </defs>
  <path
     d="M 483.47407,37.793595 C 494.49137,50.407505 500,64.601339 500,80.368797 V 389.63128 c 0,9.85857 -2.13422,19.02199 -6.40991,27.49658 -4.27332,8.47665 -10.12084,15.8685 -17.54259,22.17546 -7.41936,6.30697 -15.96354,11.33104 -25.63249,15.07857 C 440.73883,458.12942 430.28394,460 419.04313,460 c -10.80098,0 -21.1405,-1.87058 -31.04021,-5.61811 -9.89249,-3.74753 -18.43664,-8.7716 -25.6325,-15.07857 -7.19585,-6.30696 -12.93045,-13.69881 -17.2037,-22.17546 -4.27567,-8.47459 -6.40992,-17.63801 -6.40992,-27.49658 v -54.99321 c -0.45424,0.39181 -0.78591,0.78995 -1.01665,1.18177 -0.22135,0.39623 -0.55735,0.78995 -1.00945,1.18177 l -2.69663,2.36985 c 0,0.3918 -0.22351,0.58772 -0.67776,0.58772 v 0.59403 l -1.34832,1.18177 c -0.89891,0.78787 -1.57422,1.18177 -2.02608,1.18177 v 0.59404 h -0.67057 c 0,0.39181 -0.22568,0.58773 -0.67776,0.58773 l -2.69665,2.36352 c -0.44702,0.39814 -0.90126,0.69516 -1.3483,0.89107 -0.45209,0.1978 -0.90129,0.49292 -1.34833,0.88474 v 0.59405 c -2.24961,1.18175 -4.61457,2.46464 -7.08769,3.84231 -2.47312,1.37767 -4.83087,2.46464 -7.08048,3.25459 -7.65011,3.15349 -16.19426,5.11887 -25.63973,5.90883 l -0.67775,0.59403 H 266.5676 v -0.59403 c -8.99841,-0.78996 -16.41779,-2.36354 -22.26532,-4.72706 -6.74879,-2.76168 -12.59632,-5.71923 -17.54256,-8.87272 -0.90129,-0.39182 -1.4637,-0.68884 -1.6872,-0.88474 -0.2257,-0.19781 -0.7883,-0.49483 -1.68721,-0.89107 l -3.3744,-2.95125 h -0.67057 c 0,-0.39814 -0.45425,-0.98585 -1.34831,-1.77581 l -5.40049,-4.73337 c -0.44704,-0.39182 -0.78594,-0.78364 -1.00944,-1.18177 -0.22351,-0.39182 -0.56241,-0.78996 -1.01666,-1.18177 v 54.99321 c 0,9.85857 -2.13422,19.02199 -6.40991,27.49658 -4.26849,8.47458 -10.00786,15.8685 -17.20371,22.17546 -7.19585,6.30697 -15.62464,11.33104 -25.30082,15.07857 C 151.98203,458.12942 141.52714,460 130.27912,460 c -11.24081,0 -21.6957,-1.87058 -31.371875,-5.61811 -9.66659,-3.74544 -18.097772,-8.7716 -25.293619,-15.07857 C 66.410568,432.99636 60.678406,425.60244 56.409928,417.12786 52.13424,408.65327 50,399.48985 50,389.63128 V 80.368797 C 50,64.601395 55.508645,50.407505 66.525934,37.793595 77.543222,25.173367 91.603244,16.698781 108.69165,12.363539 112.28957,11.573586 115.8875,10.985852 119.48542,10.587735 123.08334,10.195918 126.68127,10 130.27919,10 c 14.39891,0 27.6658,3.052373 39.80795,9.16342 12.1421,6.111046 21.81828,14.490832 29.01414,25.133038 L 274.66495,154.87692 350.2214,44.296458 C 357.8715,33.654252 367.76398,25.274466 379.91329,19.16342 392.05538,13.052373 405.09876,10 419.0435,10 c 3.59791,0 7.19583,0.195918 10.79377,0.587735 3.59791,0.398117 7.19583,0.985851 10.79376,1.775804 17.54259,4.335242 31.8189,12.809828 42.84348,25.430056 z M 85.755283,44.890512 c -7.650092,7.488715 -12.596336,16.159199 -14.845939,26.017772 8.551377,-9.06862 19.11442,-16.462554 31.710756,-22.175465 12.59634,-5.71923 26.31027,-8.575685 41.15628,-8.575685 11.24081,0 22.04178,1.775804 32.3813,5.321094 -5.84752,-5.517012 -12.70448,-9.953372 -20.57809,-13.302763 -7.8664,-3.349372 -16.30242,-5.030395 -25.29362,-5.030395 -2.70147,0 -5.40049,0.197815 -8.09713,0.594053 -2.70147,0.396239 -5.40049,0.987939 -8.09713,1.775805 -11.24802,2.755337 -20.69347,7.880531 -28.336353,15.375584 z M 479.08303,70.908284 c -2.24961,-9.858573 -7.19585,-18.529057 -14.83874,-26.017772 -7.65008,-7.495053 -17.31906,-12.620247 -29.01411,-15.375584 -2.24962,-0.789953 -4.83087,-1.384007 -7.75824,-1.775805 -2.92016,-0.391817 -5.73218,-0.594053 -8.42881,-0.594053 -8.99843,0 -17.31908,1.681023 -24.96195,5.030395 -7.6501,3.349391 -14.39891,7.785751 -20.24644,13.302763 9.89971,-3.54529 20.69348,-5.321094 32.38854,-5.321094 14.39168,0 27.8821,2.856455 40.47851,8.575685 12.59396,5.712911 23.38773,13.104758 32.38131,22.175465 z M 101.94955,195.97333 c 12.58912,-5.71716 26.5314,-8.5757 41.82683,-8.5757 9.89249,0 19.33794,-1.67469 28.33635,-5.02408 8.99119,-3.35571 16.86483,-7.98797 23.61362,-13.8968 6.74881,-5.91514 12.02674,-12.81614 15.85538,-20.69667 3.82144,-7.88687 5.73218,-16.36144 5.73218,-25.43008 0,-8.67048 -1.91074,-16.94915 -5.73218,-24.83602 -3.82864,-7.880531 -9.10657,-14.78153 -15.85538,-20.696678 -6.74879,-5.908828 -14.62243,-10.541088 -23.61362,-13.896797 -8.99841,-3.349391 -18.44386,-5.024077 -28.33635,-5.024077 -10.34673,0 -20.0157,1.674686 -29.01412,5.024077 -8.9912,3.355709 -16.864813,7.987969 -23.613623,13.896797 C 84.407036,82.73245 79.12191,89.633449 75.293259,97.51398 71.471815,105.40085 69.561094,113.67952 69.561094,122.35 v 96.38665 c 8.998416,-9.46044 19.792185,-17.05027 32.388526,-22.7632 z M 474.02863,97.513867 C 470.19997,89.633316 464.91485,82.732317 458.17325,76.817169 451.42444,70.90836 443.55083,66.276081 434.55963,62.920372 425.5612,59.571 416.11576,57.896295 406.22328,57.896295 c -10.34675,0 -20.01571,1.674705 -29.01413,5.024077 -8.9912,3.355709 -16.86481,7.987988 -23.61362,13.896797 -6.74161,5.915148 -12.02673,12.816147 -15.85538,20.696698 -3.82145,7.886853 -5.73216,16.165513 -5.73216,24.836023 0,9.06862 1.91071,17.5432 5.73216,25.43005 3.82865,7.88054 9.11377,14.78155 15.85538,20.69668 6.74881,5.90883 14.62242,10.54109 23.61362,13.8968 8.99842,3.34939 18.66738,5.0241 29.01413,5.0241 14.83872,0 28.67523,2.85645 41.48793,8.57568 12.81988,5.71714 23.5031,13.30491 32.04964,22.7632 v -96.38664 c 0,-8.67049 -1.91071,-16.94918 -5.73216,-24.836026 z M 114.76226,209.57309 c -8.9912,3.34939 -16.864813,7.98167 -23.613623,13.8968 -6.741601,5.90883 -12.026727,12.80983 -15.855378,20.6967 -3.821444,7.88053 -5.732165,16.1592 -5.732165,24.83602 v 33.70248 c 0,13.802 5.508646,25.52486 16.533145,35.18759 11.017289,9.65633 24.399541,14.48451 40.139631,14.48451 17.98962,0 33.2826,-5.51701 45.87901,-16.55735 12.59634,-11.03403 18.89089,-24.43789 18.89089,-40.21167 v -8.8664 c 0,-11.8261 -4.8357,-21.97748 -14.50706,-30.45421 -9.66897,-8.47456 -21.24865,-12.71503 -34.74634,-12.71503 -6.29457,0 -12.14209,1.18177 -17.54259,3.55163 1.80257,3.54529 5.62402,5.3211 11.47154,5.3211 8.99841,0 16.6413,2.75533 22.93587,8.27866 6.30177,5.51702 9.44544,12.22212 9.44544,20.10265 0,10.6422 -4.38383,19.81194 -13.15152,27.49657 -8.7749,7.69096 -19.22979,11.53326 -31.37188,11.53326 -12.14209,0 -22.48882,-3.8423 -31.032992,-11.53326 -8.551377,-7.68463 -12.819855,-16.85437 -12.819855,-27.49657 0,-7.48872 1.571839,-14.58563 4.722726,-21.2844 3.143677,-6.7051 7.53473,-12.51913 13.151527,-17.44842 5.624004,-4.92296 12.257454,-8.7716 19.907554,-11.52694 7.64288,-2.76168 15.74001,-4.13934 24.28418,-4.13934 12.59395,0 24.06312,2.66055 34.40746,7.98165 10.34673,5.32111 18.66738,12.51281 24.96195,21.58143 3.59792,-5.51702 7.98898,-10.54741 13.15875,-15.07855 5.16975,-4.53116 10.90912,-8.37347 17.20368,-11.53328 13.94467,-6.30696 23.39012,-16.35512 28.33636,-30.15719 1.80257,-4.72706 2.69665,-9.46044 2.69665,-14.1875 0,-1.9717 -0.22353,-3.94342 -0.67057,-5.91513 -0.90129,-6.69878 -3.15088,-13.01206 -6.74879,-18.92089 l -18.89091,-27.79359 c -1.34833,10.25039 -4.72274,19.71082 -10.12323,28.38133 -5.39327,8.6768 -12.14209,16.26663 -20.23921,22.7695 -8.08993,6.50288 -17.42721,11.62807 -27.99747,15.37558 -10.57026,3.74121 -21.92643,5.61813 -34.06859,5.61813 -10.34673,0 -20.0157,1.67469 -29.01412,5.02408 z m 359.26637,34.5935 c -3.82866,-7.88687 -9.11378,-14.78787 -15.85538,-20.6967 -6.74881,-5.91513 -14.62242,-10.54741 -23.61362,-13.8968 -8.99843,-3.34937 -18.44387,-5.02407 -28.33635,-5.02407 -12.1421,0 -23.50548,-1.87693 -34.07581,-5.61811 -10.56303,-3.74753 -20.00849,-8.87272 -28.32914,-15.37559 -8.32065,-6.50286 -15.18481,-14.09271 -20.57809,-22.76952 -5.40049,-8.67048 -8.7749,-18.13092 -10.12322,-28.38131 l -18.89091,27.7936 c -4.94624,7.88053 -7.41937,15.9633 -7.41937,24.24197 0,4.73337 0.90129,9.65635 2.69666,14.78154 4.05216,13.01205 13.26689,23.06654 27.66578,30.15718 13.93746,6.7051 24.28419,15.77372 31.033,27.20588 6.29457,-9.06862 14.61522,-16.36144 24.96195,-21.87845 10.34673,-5.52333 22.03457,-8.27867 35.07802,-8.27867 8.55137,0 16.64851,1.37767 24.29138,4.13933 7.6501,2.75535 14.28354,6.60398 19.90035,11.52695 5.624,4.92928 10.00785,10.74331 13.15873,17.44841 3.1509,6.69878 4.72273,13.79568 4.72273,21.28441 0,10.64219 -4.38385,19.81193 -13.15875,27.49656 -8.76768,7.69095 -19.22255,11.53328 -31.37186,11.53328 -12.14209,0 -22.48882,-3.84233 -31.033,-11.53328 -8.54416,-7.68463 -12.81985,-16.85437 -12.81985,-27.49656 0,-7.88687 3.15088,-14.58563 9.44544,-20.10264 6.30178,-5.52333 13.94467,-8.27869 22.94308,-8.27869 4.94624,0 8.54417,-1.7758 10.79376,-5.32109 -4.94624,-2.36986 -10.57023,-3.55161 -16.87201,-3.55161 -13.49042,0 -25.07011,4.24044 -34.73914,12.71503 -9.67619,8.47458 -14.73059,18.62386 -15.18484,30.45421 v 8.86638 c 0.45209,15.76955 6.97471,29.17343 19.56867,40.21168 12.58913,11.04033 27.8821,16.55734 45.87902,16.55734 15.74001,0 29.0069,-4.82818 39.80073,-14.48452 10.79377,-9.66267 16.19426,-21.38553 16.19426,-35.18758 v -33.70248 c 0,-8.67681 -1.91071,-16.95549 -5.73216,-24.83602 z M 338.0789,289.69934 c 0,-4.73129 -0.67562,-9.66056 -2.02611,-14.78784 -4.94624,-13.79568 -14.39168,-23.85017 -28.32912,-30.1572 -15.29299,-7.48871 -26.31748,-17.93502 -33.05908,-31.33894 -6.74882,13.40387 -17.99684,23.85015 -33.73691,31.33894 -14.39171,7.09692 -23.61364,17.15139 -27.6586,30.1572 -1.80257,5.51908 -2.70386,10.64435 -2.70386,15.37558 0,5.91513 1.12482,11.43214 3.37441,16.55733 l 8.7749,11.8303 c 0.44704,1.18177 1.57183,2.95125 3.36719,5.32109 l 2.70386,2.36354 c 0,0.78787 0.44921,1.18177 1.34831,1.18177 v 0.59404 l 3.37441,2.95757 h 0.67056 l 0.67776,0.58772 c 0,0.39623 0.22353,0.78995 0.67055,1.18177 h 0.67778 l 2.02608,1.7758 h 0.67055 c 3.15089,2.36354 7.42659,4.53116 12.81987,6.50286 5.40049,1.97173 11.01728,3.15349 16.8648,3.55163 0.45209,0.39182 1.35316,0.58772 2.70386,0.58772 h 7.41937 c 0.8989,0 1.57421,-0.1959 2.02608,-0.58772 3.59791,-0.39814 6.97232,-0.89107 10.11601,-1.47879 3.15088,-0.59405 6.30178,-1.6747 9.44544,-3.25459 3.59792,-1.18177 7.19586,-2.95757 10.79377,-5.32111 l 2.02608,-1.7758 h 0.67778 l 2.01887,-1.76949 h 0.67776 v -0.59405 c 0.44704,0 0.67055,-0.1959 0.67055,-0.59404 h 0.67778 c 0,-0.78786 0.4492,-1.18177 1.34832,-1.18177 v -0.58771 l 2.69663,-2.36986 c 0.45208,-0.3918 0.67778,-0.7857 0.67778,-1.18175 l 0.67776,-0.58774 4.04495,-5.32109 6.74881,-9.46044 c 2.69666,-6.31328 4.04496,-12.81614 4.04496,-19.51493 z m -238.833206,-8.8727 c 0,5.91513 2.364966,11.04033 7.087696,15.37557 4.72034,4.33526 10.45489,6.50288 17.2037,6.50288 6.74881,0 12.58912,-2.16762 17.54258,-6.50288 4.94624,-4.33524 7.41936,-9.46044 7.41936,-15.37557 0,-3.15349 -1.24016,-5.81405 -3.71328,-7.98167 -2.47313,-2.16762 -5.50865,-3.25459 -9.10657,-3.25459 -12.14209,0 -21.14051,-3.94342 -26.98803,-11.82395 -6.29457,6.69876 -9.445456,14.38971 -9.445456,23.06021 z M 414.32033,269.59038 c -3.59792,0 -6.63344,1.08697 -9.11377,3.25459 -2.47312,2.16762 -3.70608,4.82818 -3.70608,7.98167 0,5.91513 2.35775,11.04033 7.08048,15.37557 4.7251,4.33526 10.45972,6.50288 17.20369,6.50288 6.74881,0 12.59634,-2.16762 17.54258,-6.50288 4.94624,-4.33524 7.41936,-9.46044 7.41936,-15.37557 0,-4.33526 -0.89405,-8.47458 -2.69663,-12.41801 -1.79536,-3.94344 -4.04495,-7.48873 -6.74881,-10.6422 -6.74161,7.88053 -15.74001,11.82395 -26.98082,11.82395 z M 173.46105,427.47942 c 11.69506,-10.25039 17.54259,-22.86646 17.54259,-37.84814 v -46.71453 c -7.6501,7.88685 -17.09555,14.28862 -28.33635,19.21789 -11.24803,4.9293 -23.39012,7.39394 -36.43356,7.39394 -11.24081,0 -21.70291,-1.97172 -31.371877,-5.91515 -9.668969,-3.94342 -18.104983,-9.26454 -25.30083,-15.9633 v 41.98115 c 0,14.98377 5.962891,27.5977 17.881464,37.84814 11.916193,10.24622 26.197353,15.36927 42.843483,15.36927 17.08833,0 31.48003,-5.1252 43.17515,-15.36927 z m 288.75715,0 c 11.69506,-10.25039 17.54259,-22.86646 17.54259,-37.84814 v -41.98115 c -6.74882,6.69876 -14.9541,12.01988 -24.62307,15.9633 -9.67133,3.94343 -20.12869,5.91515 -31.37186,5.91515 -13.04338,0 -25.19268,-2.46464 -36.43356,-7.39394 -11.24801,-4.92927 -20.91699,-11.33104 -29.01413,-19.21789 v 46.71453 c 0,14.98168 5.96052,27.5977 17.88146,37.84814 11.91859,10.24407 26.20214,15.36927 42.8435,15.36927 17.08833,0 31.48002,-5.1252 43.17516,-15.36927 z"
     id="path25"
     style="display:inline;mix-blend-mode:normal;fill:#3c67e3;stroke-width:6.75027" />
  <path
     d="m 85.077518,187.39757 14.168176,-5.32111 c 13.043376,-5.51699 27.889316,-8.27867 44.530686,-8.27867 15.74001,0 29.46114,-5.12519 41.15629,-15.37558 11.2408,-9.85226 16.8648,-21.87845 16.8648,-36.07232 0,-7.09692 -1.57183,-13.69458 -4.72271,-19.80563 -3.1509,-6.111045 -7.31122,-11.432157 -12.48099,-15.969617 -5.16975,-4.53116 -11.24802,-8.177568 -18.21313,-10.939224 -6.97233,-2.755356 -14.50706,-4.139343 -22.60419,-4.139343 -8.09713,0 -15.74001,1.383987 -22.93586,4.139343 -7.20306,2.761656 -13.38226,6.408064 -18.55923,10.939224 -5.169761,4.53746 -9.330085,9.858572 -12.480971,15.969617 -3.143676,6.11105 -4.722726,12.70871 -4.722726,19.80563 z M 447.37948,86.574643 c -5.40049,-4.53116 -11.58689,-8.177568 -18.55924,-10.939224 -6.96511,-2.755356 -14.49984,-4.139343 -22.59696,-4.139343 -8.09714,0 -15.74724,1.383987 -22.94308,4.139343 -7.19585,2.761656 -13.37505,6.408064 -18.55203,10.939224 -5.16975,4.53746 -9.33007,9.858572 -12.48097,15.969617 -3.15088,6.11105 -4.72271,12.70871 -4.72271,19.80563 0,14.58563 5.84753,26.61182 17.54256,36.07232 10.79379,10.25039 24.51493,15.37558 41.15629,15.37558 16.6413,0 31.48002,2.76168 44.52347,8.27867 l 13.49763,5.32111 v -65.04768 c 0,-7.09692 -1.4637,-13.69458 -4.38384,-19.80563 -2.92736,-6.111045 -7.08769,-11.432157 -12.48097,-15.969617 z m -41.15629,2.072821 c 10.34673,0 19.33795,3.349391 26.98805,10.048153 7.64287,6.705103 11.46432,14.585653 11.46432,23.654273 v 39.02989 c -12.1421,-3.55161 -24.96195,-5.32109 -38.45243,-5.32109 -10.79377,0 -19.90755,-3.25459 -27.32691,-9.75748 -7.41938,-6.50286 -11.13267,-14.49083 -11.13267,-23.95127 0,-9.06862 3.71329,-16.94917 11.13267,-23.654247 7.41936,-6.698781 16.53314,-10.048172 27.32691,-10.048172 z M 170.7644,146.59825 c -8.09711,6.30695 -17.64301,7.21836 -26.98802,9.46044 -12.7311,3.05444 -26.54099,1.76948 -39.13019,5.32109 v -39.02989 c 0,-9.0623 3.82144,-16.94917 11.47153,-23.654273 7.64289,-6.698762 16.86482,-10.048153 27.65859,-10.048153 10.34673,0 19.33793,3.349391 26.98803,10.048153 7.64289,6.705103 11.46431,14.591973 11.46431,23.654273 0,9.46043 -3.82142,17.5432 -11.46431,24.24828 z m 152.47575,142.50706 c 0,-3.15347 -0.67776,-6.50286 -2.02608,-10.05449 -3.59792,-10.24405 -10.57026,-17.7391 -20.91699,-22.46616 -7.19583,-3.15348 -13.4904,-7.09692 -18.89089,-11.8303 l -6.7416,-5.90881 -6.74882,5.90881 c -5.40049,4.33524 -11.91856,8.27869 -19.56866,11.8303 -9.89249,4.72706 -16.6413,12.22211 -20.23922,22.46616 -0.90128,3.55163 -1.34832,7.09692 -1.34832,10.64852 -0.44704,0.39182 -0.67055,0.98588 -0.67055,1.76949 0,2.75959 0.67271,5.5191 2.01887,8.27869 v 1.18807 l 7.42657,11.22994 c 0.89408,0.78995 1.45647,1.38398 1.68,1.7758 0.22567,0.39624 0.7883,0.98794 1.6872,1.77581 l 0.67776,1.18177 4.04495,3.54528 0.67778,1.18177 h 0.67055 c 0,0.39624 0.22567,0.59404 0.67778,0.59404 l 0.67775,0.59405 h 0.67055 c 0,0.3918 0.2257,0.58772 0.67778,0.58772 l 0.67055,0.59403 c 3.15087,1.97173 6.30177,3.54531 9.44544,4.72706 2.24961,0.78996 4.27569,1.38401 6.07106,1.77581 1.80255,0.39181 3.82865,0.59405 6.07824,0.59405 l 0.67057,0.58772 h 8.7749 c 4.94624,-0.39182 9.89248,-1.57357 14.83872,-3.54529 1.35071,-0.78787 2.58849,-1.47879 3.71329,-2.07282 1.12479,-0.58774 2.35775,-1.27657 3.70607,-2.06653 v -0.59403 c 0.45209,0 0.79075,-0.0992 1.01666,-0.29702 0.22351,-0.19592 0.56239,-0.2907 1.00943,-0.2907 V 322.22 l 1.34832,-0.59404 3.37441,-2.95125 c 0,-0.39624 0.22567,-0.59405 0.67775,-0.59405 v -0.59404 l 2.01888,-1.76948 c 0.90128,-0.78996 1.80257,-1.97173 2.70386,-3.55161 l 6.07103,-8.8664 v -1.18177 c 2.24962,-4.34157 3.37441,-8.67681 3.37441,-13.01205 z m -20.91706,-5.32111 c 0.44704,1.97172 0.67778,3.74752 0.67778,5.32111 0,2.36777 -0.4521,4.53539 -1.35553,6.50286 l -4.72273,7.69096 c -0.89408,0.78995 -1.34833,1.37766 -1.34833,1.7758 l -1.3483,1.18177 c 0,0.39182 -0.22353,0.58771 -0.67057,0.58771 l -3.37441,2.95758 c -0.90129,0.78995 -1.6872,1.28289 -2.36496,1.47879 -0.67055,0.19591 -1.46369,0.49293 -2.35775,0.88475 -2.70386,1.18175 -5.40049,1.7758 -8.09714,1.7758 -0.45208,0 -0.90129,0.1978 -1.34833,0.59404 h -2.02608 l -0.67775,-0.59404 h -1.34833 c -1.79536,0 -4.04495,-0.39182 -6.7416,-1.18177 -2.24959,-0.39181 -4.05217,-1.37767 -5.40049,-2.95757 l -0.67776,-0.59404 h -0.67057 l -3.37438,-2.95125 v -0.59404 c -0.45211,0 -0.67778,-0.19591 -0.67778,-0.58773 -0.89408,-0.78995 -1.34833,-1.38399 -1.34833,-1.7758 l -6.74158,-9.46044 c -0.45425,-1.57991 -0.67778,-2.95758 -0.67778,-4.13935 0,-1.9717 0.4492,-3.94342 1.34833,-5.91514 2.24961,-5.517 5.84752,-9.46044 10.79376,-11.82396 6.30178,-3.15347 11.91857,-6.31328 16.87204,-9.46676 2.24238,1.97171 4.83087,3.64641 7.75824,5.0304 2.92016,1.37767 5.73216,2.85646 8.42881,4.43636 5.40049,2.36352 9.22193,6.30696 11.47152,11.82396 z m -126.83589,88.70201 -13.49761,4.72706 c -10.79377,3.94342 -22.71234,5.91515 -35.75579,5.91515 -9.89249,0 -19.33794,-1.38399 -28.336353,-4.13935 l -12.819855,-3.55161 v 14.19382 c 0,11.04034 4.383841,20.39966 13.158737,28.09061 8.767681,7.68463 19.453301,11.52696 32.042431,11.52696 12.59634,0 23.28195,-3.84233 32.04965,-11.52696 8.76768,-7.69095 13.15873,-17.05027 13.15873,-28.09061 z m 288.75709,2.95125 -12.81985,3.55161 c -8.09712,2.75536 -17.31906,4.13935 -27.65858,4.13935 -12.59396,0 -24.73844,-1.97173 -36.43356,-5.91515 l -13.49763,-4.72706 v 17.14507 c 0,11.04034 4.39107,20.39966 13.15873,28.09061 8.76769,7.68463 19.45332,11.52696 32.04966,11.52696 12.58911,0 23.27474,-3.84233 32.04243,-11.52696 8.7749,-7.69095 13.15873,-17.05027 13.15873,-28.09061 z m -310.35191,21.87845 c -1.79535,4.34156 -4.83087,7.88685 -9.10656,10.64853 -4.26848,2.75533 -9.10657,4.13934 -14.49985,4.13934 -10.80098,0 -18.44387,-4.33526 -22.94307,-13.01206 3.15088,0.39813 6.18641,0.68883 9.10656,0.89107 2.92738,0.1959 6.18641,0.2907 9.78434,0.2907 4.94624,0 9.66897,-0.1959 14.16818,-0.58772 4.4992,-0.39814 8.99841,-1.18177 13.4904,-2.36986 z m 278.97996,2.66688 c 2.92016,-0.20224 6.18641,-0.49294 9.78434,-0.89107 -4.4992,8.6768 -12.37281,13.01206 -23.61362,13.01206 -5.40051,0 -10.23859,-1.38401 -14.50707,-4.13934 -4.27568,-2.76168 -7.3112,-6.30697 -9.10657,-10.64221 4.94624,1.17968 9.66898,1.96749 14.16818,2.36354 4.49199,0.39182 9.21472,0.58772 14.16817,0.58772 3.14369,0 6.1792,-0.0949 9.10657,-0.2907 z"
     id="path23"
     style="display:inline;mix-blend-mode:normal;fill:#3c67e3;stroke-width:6.75027"
     sodipodi:nodetypes="ccssssccscccccscsccsscsccscssscscssscsssacssscssssccscccccscccccccccccccccccccccccsccccccscccscscccccsccscccscccccccccsccccccccsccssscscccsccscssscccsccsccccscccsc" />
</svg>
