<svg xmlns="http://www.w3.org/2000/svg" xmlns:xlink="http://www.w3.org/1999/xlink" viewBox="0 0 281 262" width="281" height="262" preserveAspectRatio="xMidYMid meet" style="width: 100%; height: 100%; transform: translate3d(0px, 0px, 0px); content-visibility: visible;"><defs><clipPath id="__lottie_element_130"><rect width="281" height="262" x="0" y="0"></rect></clipPath><g id="__lottie_element_135"><g transform="matrix(1,0,0,1,-0.2919921875,-1.6559906005859375)" opacity="1" style="display: block;"><g opacity="1" transform="matrix(1,0,0,1,133.77499389648438,132.51199340820312)"><path fill="rgb(182,235,232)" fill-opacity="1" d=" M133.52499389648438,0.8920000195503235 C133.52499389648438,74.63500213623047 79.68900299072266,132.26199340820312 5.953999996185303,131.1269989013672 C-75.9209976196289,129.8679962158203 -133.52499389648438,74.63500213623047 -133.52499389648438,0.8920000195503235 C-133.52499389648438,-72.85199737548828 -64.58399963378906,-129.61099243164062 2.174999952316284,-130.87100219726562 C75.90599822998047,-132.26199340820312 133.52499389648438,-72.85199737548828 133.52499389648438,0.8920000195503235z"></path></g></g></g><clipPath id="__lottie_element_138"><path d="M0,0 L933,0 L933,525 L0,525z"></path></clipPath><clipPath id="__lottie_element_148"><path d="M0,0 L933,0 L933,525 L0,525z"></path></clipPath><clipPath id="__lottie_element_158"><path d="M0,0 L933,0 L933,525 L0,525z"></path></clipPath><clipPath id="__lottie_element_168"><path d="M0,0 L933,0 L933,525 L0,525z"></path></clipPath><mask id="__lottie_element_135_1" mask-type="alpha"><use xlink:href="#__lottie_element_135"></use></mask></defs><g clip-path="url(#__lottie_element_130)"><g transform="matrix(1,0,0,1,-0.2919921875,-1.6559906005859375)" opacity="1" style="display: block;"><g opacity="1" transform="matrix(1,0,0,1,133.77499389648438,132.51199340820312)"><path fill="rgb(182,235,232)" fill-opacity="1" d=" M133.52499389648438,0.8920000195503235 C133.52499389648438,74.63500213623047 79.68900299072266,132.26199340820312 5.953999996185303,131.1269989013672 C-75.9209976196289,129.8679962158203 -133.52499389648438,74.63500213623047 -133.52499389648438,0.8920000195503235 C-133.52499389648438,-72.85199737548828 -64.58399963378906,-129.61099243164062 2.174999952316284,-130.87100219726562 C75.90599822998047,-132.26199340820312 133.52499389648438,-72.85199737548828 133.52499389648438,0.8920000195503235z"></path></g></g><g mask="url(#__lottie_element_135_1)" style="display: block;"><g transform="matrix(1,0,0,1,659.5982666015625,130.7550048828125)" opacity="1"><g opacity="1" transform="matrix(1,0,0,1,0,0)"><g opacity="1" transform="matrix(1,0,0,1,0,0)"><path fill="rgb(202,225,127)" fill-opacity="1" d=" M123.25,-128 C111.75,-126 97.25,-121.75 95.75,-112.75 C94.25,-103.75 106.75,-98.75 105.75,-92 C104.75,-85.25 100.5,-81.75 100,-78.75 C99.5,-75.75 99.75,-71 108.75,-72 C117.75,-73 125.75,-93.25 131.5,-103.75 C137.25,-114.25 134.75,-130 123.25,-128z"></path></g><g opacity="1" transform="matrix(1,0,0,1,0,0)"><path fill="rgb(202,225,127)" fill-opacity="1" d=" M10.25,-112 C1.25,-121.25 -15,-105.75 -18.5,-99.25 C-22,-92.75 -18.75,-87.75 -21,-80 C-23.25,-72.25 -22.5,-73.5 -4.25,-79.25 C14,-85 8.625,-33.5 9.125,-25.5 C9.625,-17.5 15.25,-15.5 15.25,-17.5 C15.25,-19.5 16.5,-23.875 22.5,-11.875 C28.5,0.125 43.875,6.625 51.25,12.125 C58.625,17.625 46.625,24.25 52.25,29 C57.875,33.75 68.25,46 67.375,56.375 C66.5,66.75 57.375,85.5 70.5,98 C83.625,110.5 77.625,94.375 76.125,84.125 C74.625,73.875 84.625,66.125 91.625,60.25 C98.625,54.375 114.75,33.875 108.125,29.625 C101.5,25.375 89.125,22.75 82.5,13.375 C75.875,4 64.5,7.625 59,8.375 C53.5,9.125 50.25,7.625 48.125,1.25 C46,-5.125 48.25,-7.875 41.25,-5.5 C34.25,-3.125 32.875,-6.375 35.125,-14.625 C37.375,-22.875 47.75,-14.875 50.75,-14.625 C53.75,-14.375 55.75,-14.25 58.375,-22 C61,-29.75 67.75,-34.625 80.375,-39.5 C93,-44.375 88.875,-62 77.5,-69.625 C66.125,-77.25 66,-58.5 61.625,-57.5 C57.25,-56.5 56,-61.375 51.875,-66.25 C47.75,-71.125 54.125,-74.125 62.875,-79.25 C71.625,-84.375 71.625,-88.5 64.625,-91 C57.625,-93.5 52.25,-92.25 55,-98.75 C57.75,-105.25 55.5,-105.5 48.75,-108.875 C42,-112.25 42.125,-115.25 37.25,-111 C32.375,-106.75 47.25,-102.25 36,-99.25 C24.75,-96.25 19.25,-102.75 10.25,-112z"></path></g><g opacity="1" transform="matrix(1,0,0,1,0,0)"><path fill="rgb(202,225,127)" fill-opacity="1" d=" M-55,40.25 C-58.5,40.5 -63.75,46.5 -73,49.75 C-82.25,53 -88.5,81.5 -76.75,73.75 C-65,66 -59,73.25 -45.5,80.5 C-32,87.75 -30.75,60 -36.5,48.75 C-42.25,37.5 -45.25,46.5 -49,45.25 C-52.75,44 -51.5,40 -55,40.25z"></path></g><g opacity="1" transform="matrix(1,0,0,1,0,0)"><path fill="rgb(202,225,127)" fill-opacity="1" d=" M-95.25,23 C-94.25,28.25 -85.5,31.5 -87.5,27 C-89.5,22.5 -96.25,17.75 -95.25,23z"></path></g><g opacity="1" transform="matrix(1,0,0,1,0,0)"><path fill="rgb(63,174,142)" fill-opacity="1" d=" M-42.25,-118.75 C-54,-123 -57.25,-111.75 -71.75,-113.5 C-86.25,-115.25 -89.5,-104 -95.25,-108 C-101,-112 -99,-111.75 -109.75,-110.75 C-120.5,-109.75 -116.75,-114.75 -124.5,-118.5 C-132.25,-122.25 -137,-112.5 -139.75,-105.75 C-142.5,-99 -148.25,-97.5 -152.5,-98.75 C-156.75,-100 -156.75,-97.25 -156.25,-91.25 C-155.75,-85.25 -162.5,-83.5 -168,-84.25 C-173.5,-85 -175.75,-71.5 -179.5,-76 C-183.25,-80.5 -171.25,-82.5 -186.75,-86.75 C-202.25,-91 -209.25,-69 -208.5,-63.25 C-207.75,-57.5 -199,-57.5 -197.5,-62.75 C-196,-68 -190,-69.25 -190.25,-61.5 C-190.5,-53.75 -200.25,-52 -203,-53.75 C-205.75,-55.5 -213.5,-50.25 -214.75,-46.5 C-216,-42.75 -218.5,-38.5 -222.75,-37.75 C-227,-37 -231.75,-28 -223.5,-26.75 C-215.25,-25.5 -218.75,-31.5 -210.5,-36.75 C-202.25,-42 -205,-25.75 -198.5,-26.75 C-192,-27.75 -202.5,-35.25 -199.5,-38 C-196.5,-40.75 -192,-26.25 -188,-28.75 C-184,-31.25 -184.5,-46 -172.25,-41.5 C-160,-37 -177.25,-32 -181.25,-29.25 C-185.25,-26.5 -174.75,-25 -174.75,-24 C-174.75,-23 -173.75,-19.5 -181,-17.5 C-188.25,-15.5 -196,-23.25 -216.5,-25.25 C-237,-27.25 -235.25,10.5 -223,12.25 C-210.75,14 -203.5,27 -198.5,52.25 C-193.5,77.5 -171.25,57.5 -166,43 C-160.75,28.5 -150.5,11.75 -153,8.5 C-155.5,5.25 -170.75,2.75 -169.75,-2.75 C-168.75,-8.25 -154.75,4.5 -150.5,1.75 C-146.25,-1 -153.75,-3.25 -152.25,-13.75 C-150.75,-24.25 -135.5,-7.25 -126.25,5.5 C-117,18.25 -113.5,-2.75 -108.75,-5.5 C-104,-8.25 -95.5,18 -92.75,16.75 C-90,15.5 -95.75,8 -93,6.25 C-90.25,4.5 -83.75,12.5 -85,6.75 C-86.25,1 -82.75,-5.5 -76,-12.5 C-69.25,-19.5 -77.5,-25.75 -77.25,-32 C-77,-38.25 -68.75,-27.5 -66.5,-29.25 C-64.25,-31 -67.75,-39.25 -62,-42.25 C-56.25,-45.25 -54.75,-49.25 -60.25,-57.5 C-65.75,-65.75 -68,-74 -64.75,-75.25 C-61.5,-76.5 -60,-74.5 -54.25,-80.5 C-48.5,-86.5 -49.25,-79.5 -47,-70.25 C-44.75,-61 -38,-64 -40.5,-70.25 C-43,-76.5 -45.5,-82.25 -38,-88 C-30.5,-93.75 -32.5,-94.25 -33,-102.25 C-33.5,-110.25 -30.5,-114.5 -42.25,-118.75z"></path></g><g opacity="1" transform="matrix(1,0,0,1,0,0)"><path stroke-linecap="butt" stroke-linejoin="miter" fill-opacity="0" stroke-miterlimit="4" stroke="rgb(0,0,0)" stroke-opacity="1" stroke-width="1" d=" M-140.5,-8.5 C-137.5,-5 -131,8 -122.75,11.75 C-114.5,15.5 -113.25,2.25 -109.75,-0.25"></path></g><g opacity="1" transform="matrix(1,0,0,1,0,0)"><path stroke-linecap="butt" stroke-linejoin="miter" fill-opacity="0" stroke-miterlimit="4" stroke="rgb(0,0,0)" stroke-opacity="1" stroke-width="1" d=" M16.5,-5.5 C21,3 35.5,6.5 43,12 C50.5,17.5 39,19 47,29.5 C55,40 66,46.5 60.5,62.5"></path></g></g><g opacity="1" transform="matrix(1,0,0,1,-365,0)"><g opacity="1" transform="matrix(1,0,0,1,0,0)"><path fill="rgb(202,225,127)" fill-opacity="1" d=" M123.25,-128 C111.75,-126 97.25,-121.75 95.75,-112.75 C94.25,-103.75 106.75,-98.75 105.75,-92 C104.75,-85.25 100.5,-81.75 100,-78.75 C99.5,-75.75 99.75,-71 108.75,-72 C117.75,-73 125.75,-93.25 131.5,-103.75 C137.25,-114.25 134.75,-130 123.25,-128z"></path></g><g opacity="1" transform="matrix(1,0,0,1,0,0)"><path fill="rgb(202,225,127)" fill-opacity="1" d=" M10.25,-112 C1.25,-121.25 -15,-105.75 -18.5,-99.25 C-22,-92.75 -18.75,-87.75 -21,-80 C-23.25,-72.25 -22.5,-73.5 -4.25,-79.25 C14,-85 8.625,-33.5 9.125,-25.5 C9.625,-17.5 15.25,-15.5 15.25,-17.5 C15.25,-19.5 16.5,-23.875 22.5,-11.875 C28.5,0.125 43.875,6.625 51.25,12.125 C58.625,17.625 46.625,24.25 52.25,29 C57.875,33.75 68.25,46 67.375,56.375 C66.5,66.75 57.375,85.5 70.5,98 C83.625,110.5 77.625,94.375 76.125,84.125 C74.625,73.875 84.625,66.125 91.625,60.25 C98.625,54.375 114.75,33.875 108.125,29.625 C101.5,25.375 89.125,22.75 82.5,13.375 C75.875,4 64.5,7.625 59,8.375 C53.5,9.125 50.25,7.625 48.125,1.25 C46,-5.125 48.25,-7.875 41.25,-5.5 C34.25,-3.125 32.875,-6.375 35.125,-14.625 C37.375,-22.875 47.75,-14.875 50.75,-14.625 C53.75,-14.375 55.75,-14.25 58.375,-22 C61,-29.75 67.75,-34.625 80.375,-39.5 C93,-44.375 88.875,-62 77.5,-69.625 C66.125,-77.25 66,-58.5 61.625,-57.5 C57.25,-56.5 56,-61.375 51.875,-66.25 C47.75,-71.125 54.125,-74.125 62.875,-79.25 C71.625,-84.375 71.625,-88.5 64.625,-91 C57.625,-93.5 52.25,-92.25 55,-98.75 C57.75,-105.25 55.5,-105.5 48.75,-108.875 C42,-112.25 42.125,-115.25 37.25,-111 C32.375,-106.75 47.25,-102.25 36,-99.25 C24.75,-96.25 19.25,-102.75 10.25,-112z"></path></g><g opacity="1" transform="matrix(1,0,0,1,0,0)"><path fill="rgb(202,225,127)" fill-opacity="1" d=" M-55,40.25 C-58.5,40.5 -63.75,46.5 -73,49.75 C-82.25,53 -88.5,81.5 -76.75,73.75 C-65,66 -59,73.25 -45.5,80.5 C-32,87.75 -30.75,60 -36.5,48.75 C-42.25,37.5 -45.25,46.5 -49,45.25 C-52.75,44 -51.5,40 -55,40.25z"></path></g><g opacity="1" transform="matrix(1,0,0,1,0,0)"><path fill="rgb(202,225,127)" fill-opacity="1" d=" M-95.25,23 C-94.25,28.25 -85.5,31.5 -87.5,27 C-89.5,22.5 -96.25,17.75 -95.25,23z"></path></g><g opacity="1" transform="matrix(1,0,0,1,0,0)"><path fill="rgb(63,174,142)" fill-opacity="1" d=" M-42.25,-118.75 C-54,-123 -57.25,-111.75 -71.75,-113.5 C-86.25,-115.25 -89.5,-104 -95.25,-108 C-101,-112 -99,-111.75 -109.75,-110.75 C-120.5,-109.75 -116.75,-114.75 -124.5,-118.5 C-132.25,-122.25 -137,-112.5 -139.75,-105.75 C-142.5,-99 -148.25,-97.5 -152.5,-98.75 C-156.75,-100 -156.75,-97.25 -156.25,-91.25 C-155.75,-85.25 -162.5,-83.5 -168,-84.25 C-173.5,-85 -175.75,-71.5 -179.5,-76 C-183.25,-80.5 -171.25,-82.5 -186.75,-86.75 C-202.25,-91 -209.25,-69 -208.5,-63.25 C-207.75,-57.5 -199,-57.5 -197.5,-62.75 C-196,-68 -190,-69.25 -190.25,-61.5 C-190.5,-53.75 -200.25,-52 -203,-53.75 C-205.75,-55.5 -213.5,-50.25 -214.75,-46.5 C-216,-42.75 -218.5,-38.5 -222.75,-37.75 C-227,-37 -231.75,-28 -223.5,-26.75 C-215.25,-25.5 -218.75,-31.5 -210.5,-36.75 C-202.25,-42 -205,-25.75 -198.5,-26.75 C-192,-27.75 -202.5,-35.25 -199.5,-38 C-196.5,-40.75 -192,-26.25 -188,-28.75 C-184,-31.25 -184.5,-46 -172.25,-41.5 C-160,-37 -177.25,-32 -181.25,-29.25 C-185.25,-26.5 -174.75,-25 -174.75,-24 C-174.75,-23 -173.75,-19.5 -181,-17.5 C-188.25,-15.5 -196,-23.25 -216.5,-25.25 C-237,-27.25 -235.25,10.5 -223,12.25 C-210.75,14 -203.5,27 -198.5,52.25 C-193.5,77.5 -171.25,57.5 -166,43 C-160.75,28.5 -150.5,11.75 -153,8.5 C-155.5,5.25 -170.75,2.75 -169.75,-2.75 C-168.75,-8.25 -154.75,4.5 -150.5,1.75 C-146.25,-1 -153.75,-3.25 -152.25,-13.75 C-150.75,-24.25 -135.5,-7.25 -126.25,5.5 C-117,18.25 -113.5,-2.75 -108.75,-5.5 C-104,-8.25 -95.5,18 -92.75,16.75 C-90,15.5 -95.75,8 -93,6.25 C-90.25,4.5 -83.75,12.5 -85,6.75 C-86.25,1 -82.75,-5.5 -76,-12.5 C-69.25,-19.5 -77.5,-25.75 -77.25,-32 C-77,-38.25 -68.75,-27.5 -66.5,-29.25 C-64.25,-31 -67.75,-39.25 -62,-42.25 C-56.25,-45.25 -54.75,-49.25 -60.25,-57.5 C-65.75,-65.75 -68,-74 -64.75,-75.25 C-61.5,-76.5 -60,-74.5 -54.25,-80.5 C-48.5,-86.5 -49.25,-79.5 -47,-70.25 C-44.75,-61 -38,-64 -40.5,-70.25 C-43,-76.5 -45.5,-82.25 -38,-88 C-30.5,-93.75 -32.5,-94.25 -33,-102.25 C-33.5,-110.25 -30.5,-114.5 -42.25,-118.75z"></path></g><g opacity="1" transform="matrix(1,0,0,1,0,0)"><path stroke-linecap="butt" stroke-linejoin="miter" fill-opacity="0" stroke-miterlimit="4" stroke="rgb(0,0,0)" stroke-opacity="1" stroke-width="1" d=" M-140.5,-8.5 C-137.5,-5 -131,8 -122.75,11.75 C-114.5,15.5 -113.25,2.25 -109.75,-0.25"></path></g><g opacity="1" transform="matrix(1,0,0,1,0,0)"><path stroke-linecap="butt" stroke-linejoin="miter" fill-opacity="0" stroke-miterlimit="4" stroke="rgb(0,0,0)" stroke-opacity="1" stroke-width="1" d=" M16.5,-5.5 C21,3 35.5,6.5 43,12 C50.5,17.5 39,19 47,29.5 C55,40 66,46.5 60.5,62.5"></path></g></g><g opacity="1" transform="matrix(1,0,0,1,-730,0)"><g opacity="1" transform="matrix(1,0,0,1,0,0)"><path fill="rgb(202,225,127)" fill-opacity="1" d=" M123.25,-128 C111.75,-126 97.25,-121.75 95.75,-112.75 C94.25,-103.75 106.75,-98.75 105.75,-92 C104.75,-85.25 100.5,-81.75 100,-78.75 C99.5,-75.75 99.75,-71 108.75,-72 C117.75,-73 125.75,-93.25 131.5,-103.75 C137.25,-114.25 134.75,-130 123.25,-128z"></path></g><g opacity="1" transform="matrix(1,0,0,1,0,0)"><path fill="rgb(202,225,127)" fill-opacity="1" d=" M10.25,-112 C1.25,-121.25 -15,-105.75 -18.5,-99.25 C-22,-92.75 -18.75,-87.75 -21,-80 C-23.25,-72.25 -22.5,-73.5 -4.25,-79.25 C14,-85 8.625,-33.5 9.125,-25.5 C9.625,-17.5 15.25,-15.5 15.25,-17.5 C15.25,-19.5 16.5,-23.875 22.5,-11.875 C28.5,0.125 43.875,6.625 51.25,12.125 C58.625,17.625 46.625,24.25 52.25,29 C57.875,33.75 68.25,46 67.375,56.375 C66.5,66.75 57.375,85.5 70.5,98 C83.625,110.5 77.625,94.375 76.125,84.125 C74.625,73.875 84.625,66.125 91.625,60.25 C98.625,54.375 114.75,33.875 108.125,29.625 C101.5,25.375 89.125,22.75 82.5,13.375 C75.875,4 64.5,7.625 59,8.375 C53.5,9.125 50.25,7.625 48.125,1.25 C46,-5.125 48.25,-7.875 41.25,-5.5 C34.25,-3.125 32.875,-6.375 35.125,-14.625 C37.375,-22.875 47.75,-14.875 50.75,-14.625 C53.75,-14.375 55.75,-14.25 58.375,-22 C61,-29.75 67.75,-34.625 80.375,-39.5 C93,-44.375 88.875,-62 77.5,-69.625 C66.125,-77.25 66,-58.5 61.625,-57.5 C57.25,-56.5 56,-61.375 51.875,-66.25 C47.75,-71.125 54.125,-74.125 62.875,-79.25 C71.625,-84.375 71.625,-88.5 64.625,-91 C57.625,-93.5 52.25,-92.25 55,-98.75 C57.75,-105.25 55.5,-105.5 48.75,-108.875 C42,-112.25 42.125,-115.25 37.25,-111 C32.375,-106.75 47.25,-102.25 36,-99.25 C24.75,-96.25 19.25,-102.75 10.25,-112z"></path></g><g opacity="1" transform="matrix(1,0,0,1,0,0)"><path fill="rgb(202,225,127)" fill-opacity="1" d=" M-55,40.25 C-58.5,40.5 -63.75,46.5 -73,49.75 C-82.25,53 -88.5,81.5 -76.75,73.75 C-65,66 -59,73.25 -45.5,80.5 C-32,87.75 -30.75,60 -36.5,48.75 C-42.25,37.5 -45.25,46.5 -49,45.25 C-52.75,44 -51.5,40 -55,40.25z"></path></g><g opacity="1" transform="matrix(1,0,0,1,0,0)"><path fill="rgb(202,225,127)" fill-opacity="1" d=" M-95.25,23 C-94.25,28.25 -85.5,31.5 -87.5,27 C-89.5,22.5 -96.25,17.75 -95.25,23z"></path></g><g opacity="1" transform="matrix(1,0,0,1,0,0)"><path fill="rgb(63,174,142)" fill-opacity="1" d=" M-42.25,-118.75 C-54,-123 -57.25,-111.75 -71.75,-113.5 C-86.25,-115.25 -89.5,-104 -95.25,-108 C-101,-112 -99,-111.75 -109.75,-110.75 C-120.5,-109.75 -116.75,-114.75 -124.5,-118.5 C-132.25,-122.25 -137,-112.5 -139.75,-105.75 C-142.5,-99 -148.25,-97.5 -152.5,-98.75 C-156.75,-100 -156.75,-97.25 -156.25,-91.25 C-155.75,-85.25 -162.5,-83.5 -168,-84.25 C-173.5,-85 -175.75,-71.5 -179.5,-76 C-183.25,-80.5 -171.25,-82.5 -186.75,-86.75 C-202.25,-91 -209.25,-69 -208.5,-63.25 C-207.75,-57.5 -199,-57.5 -197.5,-62.75 C-196,-68 -190,-69.25 -190.25,-61.5 C-190.5,-53.75 -200.25,-52 -203,-53.75 C-205.75,-55.5 -213.5,-50.25 -214.75,-46.5 C-216,-42.75 -218.5,-38.5 -222.75,-37.75 C-227,-37 -231.75,-28 -223.5,-26.75 C-215.25,-25.5 -218.75,-31.5 -210.5,-36.75 C-202.25,-42 -205,-25.75 -198.5,-26.75 C-192,-27.75 -202.5,-35.25 -199.5,-38 C-196.5,-40.75 -192,-26.25 -188,-28.75 C-184,-31.25 -184.5,-46 -172.25,-41.5 C-160,-37 -177.25,-32 -181.25,-29.25 C-185.25,-26.5 -174.75,-25 -174.75,-24 C-174.75,-23 -173.75,-19.5 -181,-17.5 C-188.25,-15.5 -196,-23.25 -216.5,-25.25 C-237,-27.25 -235.25,10.5 -223,12.25 C-210.75,14 -203.5,27 -198.5,52.25 C-193.5,77.5 -171.25,57.5 -166,43 C-160.75,28.5 -150.5,11.75 -153,8.5 C-155.5,5.25 -170.75,2.75 -169.75,-2.75 C-168.75,-8.25 -154.75,4.5 -150.5,1.75 C-146.25,-1 -153.75,-3.25 -152.25,-13.75 C-150.75,-24.25 -135.5,-7.25 -126.25,5.5 C-117,18.25 -113.5,-2.75 -108.75,-5.5 C-104,-8.25 -95.5,18 -92.75,16.75 C-90,15.5 -95.75,8 -93,6.25 C-90.25,4.5 -83.75,12.5 -85,6.75 C-86.25,1 -82.75,-5.5 -76,-12.5 C-69.25,-19.5 -77.5,-25.75 -77.25,-32 C-77,-38.25 -68.75,-27.5 -66.5,-29.25 C-64.25,-31 -67.75,-39.25 -62,-42.25 C-56.25,-45.25 -54.75,-49.25 -60.25,-57.5 C-65.75,-65.75 -68,-74 -64.75,-75.25 C-61.5,-76.5 -60,-74.5 -54.25,-80.5 C-48.5,-86.5 -49.25,-79.5 -47,-70.25 C-44.75,-61 -38,-64 -40.5,-70.25 C-43,-76.5 -45.5,-82.25 -38,-88 C-30.5,-93.75 -32.5,-94.25 -33,-102.25 C-33.5,-110.25 -30.5,-114.5 -42.25,-118.75z"></path></g><g opacity="1" transform="matrix(1,0,0,1,0,0)"><path stroke-linecap="butt" stroke-linejoin="miter" fill-opacity="0" stroke-miterlimit="4" stroke="rgb(0,0,0)" stroke-opacity="1" stroke-width="1" d=" M-140.5,-8.5 C-137.5,-5 -131,8 -122.75,11.75 C-114.5,15.5 -113.25,2.25 -109.75,-0.25"></path></g><g opacity="1" transform="matrix(1,0,0,1,0,0)"><path stroke-linecap="butt" stroke-linejoin="miter" fill-opacity="0" stroke-miterlimit="4" stroke="rgb(0,0,0)" stroke-opacity="1" stroke-width="1" d=" M16.5,-5.5 C21,3 35.5,6.5 43,12 C50.5,17.5 39,19 47,29.5 C55,40 66,46.5 60.5,62.5"></path></g></g><g opacity="1" transform="matrix(1,0,0,1,-1096,0)"><g opacity="1" transform="matrix(1,0,0,1,0,0)"><path fill="rgb(202,225,127)" fill-opacity="1" d=" M123.25,-128 C111.75,-126 97.25,-121.75 95.75,-112.75 C94.25,-103.75 106.75,-98.75 105.75,-92 C104.75,-85.25 100.5,-81.75 100,-78.75 C99.5,-75.75 99.75,-71 108.75,-72 C117.75,-73 125.75,-93.25 131.5,-103.75 C137.25,-114.25 134.75,-130 123.25,-128z"></path></g><g opacity="1" transform="matrix(1,0,0,1,0,0)"><path fill="rgb(202,225,127)" fill-opacity="1" d=" M10.25,-112 C1.25,-121.25 -15,-105.75 -18.5,-99.25 C-22,-92.75 -18.75,-87.75 -21,-80 C-23.25,-72.25 -22.5,-73.5 -4.25,-79.25 C14,-85 8.625,-33.5 9.125,-25.5 C9.625,-17.5 15.25,-15.5 15.25,-17.5 C15.25,-19.5 16.5,-23.875 22.5,-11.875 C28.5,0.125 43.875,6.625 51.25,12.125 C58.625,17.625 46.625,24.25 52.25,29 C57.875,33.75 68.25,46 67.375,56.375 C66.5,66.75 57.375,85.5 70.5,98 C83.625,110.5 77.625,94.375 76.125,84.125 C74.625,73.875 84.625,66.125 91.625,60.25 C98.625,54.375 114.75,33.875 108.125,29.625 C101.5,25.375 89.125,22.75 82.5,13.375 C75.875,4 64.5,7.625 59,8.375 C53.5,9.125 50.25,7.625 48.125,1.25 C46,-5.125 48.25,-7.875 41.25,-5.5 C34.25,-3.125 32.875,-6.375 35.125,-14.625 C37.375,-22.875 47.75,-14.875 50.75,-14.625 C53.75,-14.375 55.75,-14.25 58.375,-22 C61,-29.75 67.75,-34.625 80.375,-39.5 C93,-44.375 88.875,-62 77.5,-69.625 C66.125,-77.25 66,-58.5 61.625,-57.5 C57.25,-56.5 56,-61.375 51.875,-66.25 C47.75,-71.125 54.125,-74.125 62.875,-79.25 C71.625,-84.375 71.625,-88.5 64.625,-91 C57.625,-93.5 52.25,-92.25 55,-98.75 C57.75,-105.25 55.5,-105.5 48.75,-108.875 C42,-112.25 42.125,-115.25 37.25,-111 C32.375,-106.75 47.25,-102.25 36,-99.25 C24.75,-96.25 19.25,-102.75 10.25,-112z"></path></g><g opacity="1" transform="matrix(1,0,0,1,0,0)"><path fill="rgb(202,225,127)" fill-opacity="1" d=" M-55,40.25 C-58.5,40.5 -63.75,46.5 -73,49.75 C-82.25,53 -88.5,81.5 -76.75,73.75 C-65,66 -59,73.25 -45.5,80.5 C-32,87.75 -30.75,60 -36.5,48.75 C-42.25,37.5 -45.25,46.5 -49,45.25 C-52.75,44 -51.5,40 -55,40.25z"></path></g><g opacity="1" transform="matrix(1,0,0,1,0,0)"><path fill="rgb(202,225,127)" fill-opacity="1" d=" M-95.25,23 C-94.25,28.25 -85.5,31.5 -87.5,27 C-89.5,22.5 -96.25,17.75 -95.25,23z"></path></g><g opacity="1" transform="matrix(1,0,0,1,0,0)"><path fill="rgb(63,174,142)" fill-opacity="1" d=" M-42.25,-118.75 C-54,-123 -57.25,-111.75 -71.75,-113.5 C-86.25,-115.25 -89.5,-104 -95.25,-108 C-101,-112 -99,-111.75 -109.75,-110.75 C-120.5,-109.75 -116.75,-114.75 -124.5,-118.5 C-132.25,-122.25 -137,-112.5 -139.75,-105.75 C-142.5,-99 -148.25,-97.5 -152.5,-98.75 C-156.75,-100 -156.75,-97.25 -156.25,-91.25 C-155.75,-85.25 -162.5,-83.5 -168,-84.25 C-173.5,-85 -175.75,-71.5 -179.5,-76 C-183.25,-80.5 -171.25,-82.5 -186.75,-86.75 C-202.25,-91 -209.25,-69 -208.5,-63.25 C-207.75,-57.5 -199,-57.5 -197.5,-62.75 C-196,-68 -190,-69.25 -190.25,-61.5 C-190.5,-53.75 -200.25,-52 -203,-53.75 C-205.75,-55.5 -213.5,-50.25 -214.75,-46.5 C-216,-42.75 -218.5,-38.5 -222.75,-37.75 C-227,-37 -231.75,-28 -223.5,-26.75 C-215.25,-25.5 -218.75,-31.5 -210.5,-36.75 C-202.25,-42 -205,-25.75 -198.5,-26.75 C-192,-27.75 -202.5,-35.25 -199.5,-38 C-196.5,-40.75 -192,-26.25 -188,-28.75 C-184,-31.25 -184.5,-46 -172.25,-41.5 C-160,-37 -177.25,-32 -181.25,-29.25 C-185.25,-26.5 -174.75,-25 -174.75,-24 C-174.75,-23 -173.75,-19.5 -181,-17.5 C-188.25,-15.5 -196,-23.25 -216.5,-25.25 C-237,-27.25 -235.25,10.5 -223,12.25 C-210.75,14 -203.5,27 -198.5,52.25 C-193.5,77.5 -171.25,57.5 -166,43 C-160.75,28.5 -150.5,11.75 -153,8.5 C-155.5,5.25 -170.75,2.75 -169.75,-2.75 C-168.75,-8.25 -154.75,4.5 -150.5,1.75 C-146.25,-1 -153.75,-3.25 -152.25,-13.75 C-150.75,-24.25 -135.5,-7.25 -126.25,5.5 C-117,18.25 -113.5,-2.75 -108.75,-5.5 C-104,-8.25 -95.5,18 -92.75,16.75 C-90,15.5 -95.75,8 -93,6.25 C-90.25,4.5 -83.75,12.5 -85,6.75 C-86.25,1 -82.75,-5.5 -76,-12.5 C-69.25,-19.5 -77.5,-25.75 -77.25,-32 C-77,-38.25 -68.75,-27.5 -66.5,-29.25 C-64.25,-31 -67.75,-39.25 -62,-42.25 C-56.25,-45.25 -54.75,-49.25 -60.25,-57.5 C-65.75,-65.75 -68,-74 -64.75,-75.25 C-61.5,-76.5 -60,-74.5 -54.25,-80.5 C-48.5,-86.5 -49.25,-79.5 -47,-70.25 C-44.75,-61 -38,-64 -40.5,-70.25 C-43,-76.5 -45.5,-82.25 -38,-88 C-30.5,-93.75 -32.5,-94.25 -33,-102.25 C-33.5,-110.25 -30.5,-114.5 -42.25,-118.75z"></path></g><g opacity="1" transform="matrix(1,0,0,1,0,0)"><path stroke-linecap="butt" stroke-linejoin="miter" fill-opacity="0" stroke-miterlimit="4" stroke="rgb(0,0,0)" stroke-opacity="1" stroke-width="1" d=" M-140.5,-8.5 C-137.5,-5 -131,8 -122.75,11.75 C-114.5,15.5 -113.25,2.25 -109.75,-0.25"></path></g><g opacity="1" transform="matrix(1,0,0,1,0,0)"><path stroke-linecap="butt" stroke-linejoin="miter" fill-opacity="0" stroke-miterlimit="4" stroke="rgb(0,0,0)" stroke-opacity="1" stroke-width="1" d=" M16.5,-5.5 C21,3 35.5,6.5 43,12 C50.5,17.5 39,19 47,29.5 C55,40 66,46.5 60.5,62.5"></path></g></g></g></g><g clip-path="url(#__lottie_element_168)" transform="matrix(1,0,0,1,46.60968017578125,-163.2449951171875)" opacity="1" style="display: none;"><g transform="matrix(0,0,0,0,214.54100036621094,284.39300537109375)" opacity="1" style="display: block;"><g opacity="1" transform="matrix(1,0,0,1,9.779000282287598,2.7950000762939453)"><path fill="rgb(255,255,255)" fill-opacity="1" d=" M3.4670000076293945,0 C3.2890000343322754,0.5400000214576721 2.0439999103546143,0.6940000057220459 0,0.6940000057220459 C-1.6890000104904175,0.6940000057220459 -3.378999948501587,0.5400000214576721 -3.4679999351501465,0 C-3.555999994277954,-0.38600000739097595 -2.0450000762939453,-0.6940000057220459 -0.08900000154972076,-0.6940000057220459 C1.777999997138977,-0.6940000057220459 3.555999994277954,-0.46299999952316284 3.4670000076293945,0z"></path></g><g opacity="1" transform="matrix(1,0,0,1,10.015000343322754,2.7950000762939453)"><path fill="rgb(255,255,255)" fill-opacity="1" d=" M-6.857999801635742,-1.9210000038146973 C-5.223999977111816,-2.303999900817871 -2.937000036239624,-2.5450000762939453 -0.35100001096725464,-2.5450000762939453 C2.2130000591278076,-2.5450000762939453 4.7230000495910645,-2.437000036239624 6.550000190734863,-2.134999990463257 C7.453999996185303,-1.9859999418258667 8.244999885559082,-1.781999945640564 8.795000076293945,-1.4889999628067017 C9.071000099182129,-1.343000054359436 9.336999893188477,-1.1480000019073486 9.51200008392334,-0.8799999952316284 C9.704999923706055,-0.5860000252723694 9.765000343322754,-0.2370000034570694 9.663000106811523,0.12099999934434891 C9.5,0.6980000138282776 9.069000244140625,1.1109999418258667 8.541999816894531,1.4079999923706055 C8.012999534606934,1.7059999704360962 7.323999881744385,1.9240000247955322 6.517000198364258,2.0869998931884766 C4.900000095367432,2.4149999618530273 2.6760001182556152,2.5450000762939453 -0.01600000075995922,2.5450000762939453 C-2.2070000171661377,2.5450000762939453 -4.465000152587891,2.434999942779541 -6.2179999351501465,2.132999897003174 C-7.091000080108643,1.9830000400543213 -7.873000144958496,1.7799999713897705 -8.467000007629395,1.5 C-9.027999877929688,1.2350000143051147 -9.595000267028809,0.8180000185966492 -9.708999633789062,0.14499999582767487 C-9.708999633789062,0.14499999582767487 -9.710000038146973,0.13899999856948853 -9.710000038146973,0.13899999856948853 C-9.765000343322754,-0.20200000703334808 -9.642000198364258,-0.4959999918937683 -9.470000267028809,-0.7129999995231628 C-9.307000160217285,-0.9210000038146973 -9.079999923706055,-1.0870000123977661 -8.83899974822998,-1.2239999771118164 C-8.354000091552734,-1.4989999532699585 -7.669000148773193,-1.7309999465942383 -6.857999801635742,-1.9210000038146973z M-8.579999923706055,0.003000000026077032 C-8.531000137329102,0.0949999988079071 -8.388999938964844,0.2529999911785126 -8.001999855041504,0.4359999895095825 C-7.539999961853027,0.6539999842643738 -6.870999813079834,0.8370000123977661 -6.034999847412109,0.9810000061988831 C-4.370999813079834,1.2669999599456787 -2.184999942779541,1.3769999742507935 -0.01600000075995922,1.3769999742507935 C2.6589999198913574,1.3769999742507935 4.795000076293945,1.246000051498413 6.302000045776367,0.9399999976158142 C7.057000160217285,0.7879999876022339 7.620999813079834,0.5979999899864197 8.005999565124512,0.3799999952316284 C8.392999649047852,0.16300000250339508 8.538999557495117,-0.04500000178813934 8.585000038146973,-0.20900000631809235 C8.586999893188477,-0.2150000035762787 8.588000297546387,-0.2160000056028366 8.588000297546387,-0.2160000056028366 C8.588000297546387,-0.2160000056028366 8.586999893188477,-0.21699999272823334 8.583000183105469,-0.2240000069141388 C8.557000160217285,-0.2630000114440918 8.477999687194824,-0.34599998593330383 8.284000396728516,-0.4490000009536743 C7.896999835968018,-0.6539999842643738 7.251999855041504,-0.8370000123977661 6.374000072479248,-0.9810000061988831 C4.63700008392334,-1.2680000066757202 2.1989998817443848,-1.3769999742507935 -0.35100001096725464,-1.3769999742507935 C-2.880000114440918,-1.3769999742507935 -5.079999923706055,-1.1399999856948853 -6.611000061035156,-0.7820000052452087 C-7.381999969482422,-0.6010000109672546 -7.949999809265137,-0.3970000147819519 -8.300999641418457,-0.19900000095367432 C-8.449999809265137,-0.11400000005960464 -8.53600025177002,-0.04399999976158142 -8.579999923706055,0.003000000026077032z"></path></g></g><g transform="matrix(0.01779712177813053,0,0,0.01779712177813053,212.0415496826172,264.25946044921875)" opacity="1" style="display: block;"><g opacity="1" transform="matrix(1,0,0,1,25.732999801635742,13.607999801635742)"><path fill="rgb(102,91,177)" fill-opacity="1" d=" M-20.849000930786133,8.003999710083008 C-21.295000076293945,7.892000198364258 -21.68600082397461,7.78000020980835 -22.132999420166016,7.61299991607666 C-23.808000564575195,7 -24.534000396728516,5.438000202178955 -24.924999237060547,3.931999921798706 C-25.482999801635742,1.5329999923706055 -25.42799949645996,-0.9760000109672546 -25.42799949645996,-3.430999994277954 C-25.42799949645996,-10.458000183105469 -24.534000396728516,-13.13599967956543 -19.062000274658203,-13.13599967956543 C-19.062000274658203,-13.13599967956543 18.781999588012695,-13.357999801635742 18.781999588012695,-13.357999801635742 C25.427000045776367,-13.357999801635742 25.482999801635742,-8.282999992370605 25.482999801635742,-1.3109999895095825 C25.482999801635742,5.7170000076293945 25.148000717163086,8.170999526977539 20.01099967956543,8.170999526977539 C20.01099967956543,8.170999526977539 5.946000099182129,7.724999904632568 5.946000099182129,7.724999904632568 C5.21999979019165,7.724999904632568 4.605999946594238,8.0600004196167 4.327000141143799,8.67300033569336 C4.327000141143799,8.67300033569336 2.428999900817871,12.633000373840332 2.428999900817871,12.633000373840332 C2.0929999351501465,13.302000045776367 1.0329999923706055,13.357999801635742 0.6420000195503235,12.744000434875488 C0.6420000195503235,12.744000434875488 -1.7589999437332153,8.95199966430664 -1.7589999437332153,8.95199966430664 C-2.1500000953674316,8.338000297546387 -2.7639999389648438,8.0600004196167 -3.5460000038146973,8.0600004196167 C-4.997000217437744,8.003999710083008 -14.371999740600586,8.170999526977539 -15.767999649047852,8.22700023651123 C-17.386999130249023,8.338000297546387 -19.229000091552734,8.394000053405762 -20.849000930786133,8.003999710083008z"></path></g><g opacity="1" transform="matrix(1,0,0,1,17.695999145507812,9.53600025177002)"><path fill="rgb(255,255,255)" fill-opacity="1" d=" M-4.632999897003174,6.199999809265137 C-5.230000019073486,6.199999809265137 -6.084000110626221,5.979000091552734 -6.99399995803833,5.034999847412109 C-7.63700008392334,4.36899995803833 -7.690000057220459,2.9089999198913574 -7.699999809265137,0.5830000042915344 C-7.702000141143799,0.09300000220537186 -7.703999996185303,-0.4000000059604645 -7.7179999351501465,-0.8679999709129333 C-7.791999816894531,-3.4070000648498535 -7.789999961853027,-5.955999851226807 -7.789999961853027,-5.98199987411499 C-7.789000034332275,-6.313000202178955 -7.520999908447266,-6.579999923706055 -7.190000057220459,-6.579999923706055 C-7.190000057220459,-6.579999923706055 -7.189000129699707,-6.579999923706055 -7.189000129699707,-6.579999923706055 C-6.857999801635742,-6.579999923706055 -6.589000225067139,-6.311999797821045 -6.590000152587891,-5.980000019073486 C-6.590000152587891,-5.953999996185303 -6.591000080108643,-3.4240000247955322 -6.519000053405762,-0.9039999842643738 C-6.505000114440918,-0.42500001192092896 -6.502999782562256,0.07699999958276749 -6.5,0.578000009059906 C-6.49399995803833,1.875 -6.486000061035156,3.8340001106262207 -6.130000114440918,4.203000068664551 C-5.598999977111816,4.752999782562256 -5.060999870300293,5.01800012588501 -4.558000087738037,4.998000144958496 C-4.15500020980835,4.9720001220703125 -3.763000011444092,4.74399995803833 -3.4830000400543213,4.369999885559082 C-3.0460000038146973,3.7869999408721924 -3.0199999809265137,2.3350000381469727 -3.0460000038146973,1.871999979019165 C-3.0460000038146973,1.871999979019165 -3.049999952316284,1.8049999475479126 -3.049999952316284,1.8049999475479126 C-3.049999952316284,1.8049999475479126 -3.0390000343322754,1.7400000095367432 -3.0390000343322754,1.7400000095367432 C-2.9509999752044678,1.215000033378601 -2.562999963760376,1.1469999551773071 -2.446000099182129,1.1390000581741333 C-1.930999994277954,1.0950000286102295 -1.7910000085830688,1.5329999923706055 -1.6039999723434448,2.128999948501587 C-1.3990000486373901,2.7820000648498535 -1.0180000066757202,3.996999979019165 -0.4690000116825104,4.454999923706055 C0.8999999761581421,5.593999862670898 2.822000026702881,4.576000213623047 3.8469998836517334,3.867000102996826 C3.8469998836517334,3.867000102996826 4.96999979019165,3.0969998836517334 4.96999979019165,3.0969998836517334 C5.445000171661377,2.7720000743865967 5.888000011444092,2.4709999561309814 6.215000152587891,2.239000082015991 C6.414000034332275,2.0969998836517334 6.5320000648498535,1.9570000171661377 6.546000003814697,1.843999981880188 C6.558000087738037,1.7419999837875366 6.493000030517578,1.5989999771118164 6.366000175476074,1.4509999752044678 C5.991000175476074,1.0140000581741333 4.943999767303467,0.9860000014305115 4.440999984741211,0.9710000157356262 C4.2789998054504395,0.9679999947547913 4.144000053405762,0.9629999995231628 4.051000118255615,0.953000009059906 C2.753999948501587,0.8130000233650208 1.5870000123977661,0.9160000085830688 1.5740000009536743,0.9169999957084656 C1.2569999694824219,0.9520000219345093 0.9520000219345093,0.7039999961853027 0.921999990940094,0.37400001287460327 C0.8920000195503235,0.04399999976158142 1.1360000371932983,-0.24799999594688416 1.465999960899353,-0.27900001406669617 C1.5169999599456787,-0.28299999237060547 2.7639999389648438,-0.3959999978542328 4.179999828338623,-0.23999999463558197 C4.249000072479248,-0.2329999953508377 4.35099983215332,-0.23100000619888306 4.473999977111816,-0.2280000001192093 C5.201000213623047,-0.20800000429153442 6.556000232696533,-0.17100000381469727 7.2769999504089355,0.6700000166893005 C7.632999897003174,1.0850000381469727 7.791999816894531,1.5420000553131104 7.736999988555908,1.9900000095367432 C7.679999828338623,2.4560000896453857 7.401000022888184,2.869999885559082 6.908999919891357,3.2179999351501465 C6.576000213623047,3.453000068664551 6.127999782562256,3.759999990463257 5.645999908447266,4.0879998207092285 C5.645999908447266,4.0879998207092285 4.531000137329102,4.853000164031982 4.531000137329102,4.853000164031982 C2.311000108718872,6.388999938964844 0.20800000429153442,6.579999923706055 -1.2369999885559082,5.376999855041504 C-1.590999960899353,5.083000183105469 -1.871999979019165,4.658999919891357 -2.0980000495910645,4.205999851226807 C-2.197999954223633,4.5320000648498535 -2.3359999656677246,4.840000152587891 -2.5230000019073486,5.091000080108643 C-3.015000104904175,5.745999813079834 -3.7300000190734863,6.1479997634887695 -4.485000133514404,6.195000171661377 C-4.5320000648498535,6.197999954223633 -4.580999851226807,6.199999809265137 -4.632999897003174,6.199999809265137z"></path></g><g opacity="1" transform="matrix(1,0,0,1,29.80900001525879,15.178999900817871)"><path fill="rgb(255,255,255)" fill-opacity="1" d=" M-3.1040000915527344,3.9149999618530273 C-3.359999895095825,3.9149999618530273 -3.5989999771118164,3.749000072479248 -3.677999973297119,3.490999937057495 C-3.7760000228881836,3.174999952316284 -3.5980000495910645,2.8389999866485596 -3.2809998989105225,2.740999937057495 C-3.247999906539917,2.7300000190734863 -2.444000005722046,2.4830000400543213 -0.8330000042915344,2.1010000705718994 C-0.23600000143051147,1.9589999914169312 0.4169999957084656,1.6410000324249268 1.1109999418258667,1.1549999713897705 C2.4159998893737793,0.2409999966621399 2.3340001106262207,-2.1510000228881836 2.0959999561309814,-3.1029999256134033 C2.0160000324249268,-3.4240000247955322 2.2109999656677246,-3.749000072479248 2.5329999923706055,-3.8289999961853027 C2.8519999980926514,-3.9140000343322754 3.178999900817871,-3.7149999141693115 3.259999990463257,-3.3940000534057617 C3.509000062942505,-2.3980000019073486 3.7750000953674316,0.7540000081062317 1.7990000247955322,2.138000011444092 C0.9800000190734863,2.7109999656677246 0.1889999955892563,3.0910000801086426 -0.5550000071525574,3.2690000534057617 C-2.121999979019165,3.6410000324249268 -2.9200000762939453,3.885999917984009 -2.927999973297119,3.888000011444092 C-2.986999988555908,3.9059998989105225 -3.0450000762939453,3.9149999618530273 -3.1040000915527344,3.9149999618530273z"></path></g><g opacity="1" transform="matrix(1,0,0,1,37.4370002746582,12.880000114440918)"><path fill="rgb(255,255,255)" fill-opacity="1" d=" M2.492000102996826,2.885999917984009 C1.7109999656677246,2.885999917984009 0.9150000214576721,2.681999921798706 0.38999998569488525,2.1710000038146973 C0.3370000123977661,2.11899995803833 0.2840000092983246,2.061000108718872 0.23199999332427979,1.996000051498413 C-0.4869999885559082,2.7950000762939453 -1.6759999990463257,2.684000015258789 -3.2239999771118164,2.5409998893737793 C-4.9019999504089355,2.384000062942505 -5.40500020980835,0.5429999828338623 -5.436999797821045,-0.41100001335144043 C-5.447999954223633,-0.7409999966621399 -5.190000057220459,-1.0169999599456787 -4.860000133514404,-1.0290000438690186 C-4.495999813079834,-1.0140000581741333 -4.250999927520752,-0.7820000052452087 -4.23799991607666,-0.4519999921321869 C-4.236999988555908,-0.4350000023841858 -4.158999919891357,1.2489999532699585 -3.11299991607666,1.3450000286102295 C-1.1050000190734863,1.531000018119812 -0.7379999756813049,1.4730000495910645 -0.492000013589859,0.9200000166893005 C-0.42100000381469727,0.7590000033378601 -0.35600000619888306,0.5580000281333923 -0.2840000092983246,0.33899998664855957 C0.061000000685453415,-0.7070000171661377 0.7789999842643738,-2.885999917984009 3.2300000190734863,-2.1549999713897705 C4.198999881744385,-1.8660000562667847 4.959000110626221,-1.0210000276565552 5.124000072479248,-0.050999999046325684 C5.447999954223633,1.8580000400543213 4.482999801635742,2.5230000019073486 3.617000102996826,2.746000051498413 C3.2690000534057617,2.8350000381469727 2.882999897003174,2.885999917984009 2.492000102996826,2.885999917984009z M1.055999994277954,0.1509999930858612 C1.0540000200271606,0.16300000250339508 1.0520000457763672,0.17499999701976776 1.0490000247955322,0.18799999356269836 C0.8690000176429749,0.9610000252723694 1.1399999856948853,1.225000023841858 1.2289999723434448,1.312000036239624 C1.6549999713897705,1.7280000448226929 2.621999979019165,1.7630000114440918 3.318000078201294,1.5839999914169312 C3.755000114440918,1.4709999561309814 4.131999969482422,1.2769999504089355 3.940999984741211,0.15000000596046448 C3.8510000705718994,-0.3790000081062317 3.427999973297119,-0.8429999947547913 2.888000011444092,-1.003999948501587 C1.8949999809265137,-1.3020000457763672 1.4709999561309814,-0.9160000085830688 1.055999994277954,0.1509999930858612z"></path></g><g opacity="1" transform="matrix(1,0,0,1,15.444000244140625,17.493000030517578)"><path fill="rgb(255,255,255)" fill-opacity="1" d=" M0.0860000029206276,0.6000000238418579 C0.0860000029206276,0.6000000238418579 -0.0860000029206276,0.6000000238418579 -0.0860000029206276,0.6000000238418579 C-0.4169999957084656,0.6000000238418579 -0.6859999895095825,0.33000001311302185 -0.6859999895095825,-0.0010000000474974513 C-0.6859999895095825,-0.3319999873638153 -0.4169999957084656,-0.6000000238418579 -0.0860000029206276,-0.6000000238418579 C-0.0860000029206276,-0.6000000238418579 0.0860000029206276,-0.6000000238418579 0.0860000029206276,-0.6000000238418579 C0.4180000126361847,-0.6000000238418579 0.6859999895095825,-0.3319999873638153 0.6859999895095825,-0.0010000000474974513 C0.6859999895095825,0.33000001311302185 0.4180000126361847,0.6000000238418579 0.0860000029206276,0.6000000238418579z"></path></g></g></g><g clip-path="url(#__lottie_element_158)" style="display: block;" transform="matrix(1,0,0,1,-14.89971923828125,-159.2449951171875)" opacity="1"><g transform="matrix(0.7884232997894287,0,0,0.7884232997894287,202.14967346191406,258.6893615722656)" opacity="1" style="display: block;"><g opacity="1" transform="matrix(1,0,0,1,9.779000282287598,2.7950000762939453)"><path fill="rgb(255,255,255)" fill-opacity="1" d=" M3.4670000076293945,0 C3.2890000343322754,0.5400000214576721 2.0439999103546143,0.6940000057220459 0,0.6940000057220459 C-1.6890000104904175,0.6940000057220459 -3.378999948501587,0.5400000214576721 -3.4679999351501465,0 C-3.555999994277954,-0.38600000739097595 -2.0450000762939453,-0.6940000057220459 -0.08900000154972076,-0.6940000057220459 C1.777999997138977,-0.6940000057220459 3.555999994277954,-0.46299999952316284 3.4670000076293945,0z"></path></g><g opacity="1" transform="matrix(1,0,0,1,10.015000343322754,2.7950000762939453)"><path fill="rgb(255,255,255)" fill-opacity="1" d=" M-6.857999801635742,-1.9210000038146973 C-5.223999977111816,-2.303999900817871 -2.937000036239624,-2.5450000762939453 -0.35100001096725464,-2.5450000762939453 C2.2130000591278076,-2.5450000762939453 4.7230000495910645,-2.437000036239624 6.550000190734863,-2.134999990463257 C7.453999996185303,-1.9859999418258667 8.244999885559082,-1.781999945640564 8.795000076293945,-1.4889999628067017 C9.071000099182129,-1.343000054359436 9.336999893188477,-1.1480000019073486 9.51200008392334,-0.8799999952316284 C9.704999923706055,-0.5860000252723694 9.765000343322754,-0.2370000034570694 9.663000106811523,0.12099999934434891 C9.5,0.6980000138282776 9.069000244140625,1.1109999418258667 8.541999816894531,1.4079999923706055 C8.012999534606934,1.7059999704360962 7.323999881744385,1.9240000247955322 6.517000198364258,2.0869998931884766 C4.900000095367432,2.4149999618530273 2.6760001182556152,2.5450000762939453 -0.01600000075995922,2.5450000762939453 C-2.2070000171661377,2.5450000762939453 -4.465000152587891,2.434999942779541 -6.2179999351501465,2.132999897003174 C-7.091000080108643,1.9830000400543213 -7.873000144958496,1.7799999713897705 -8.467000007629395,1.5 C-9.027999877929688,1.2350000143051147 -9.595000267028809,0.8180000185966492 -9.708999633789062,0.14499999582767487 C-9.708999633789062,0.14499999582767487 -9.710000038146973,0.13899999856948853 -9.710000038146973,0.13899999856948853 C-9.765000343322754,-0.20200000703334808 -9.642000198364258,-0.4959999918937683 -9.470000267028809,-0.7129999995231628 C-9.307000160217285,-0.9210000038146973 -9.079999923706055,-1.0870000123977661 -8.83899974822998,-1.2239999771118164 C-8.354000091552734,-1.4989999532699585 -7.669000148773193,-1.7309999465942383 -6.857999801635742,-1.9210000038146973z M-8.579999923706055,0.003000000026077032 C-8.531000137329102,0.0949999988079071 -8.388999938964844,0.2529999911785126 -8.001999855041504,0.4359999895095825 C-7.539999961853027,0.6539999842643738 -6.870999813079834,0.8370000123977661 -6.034999847412109,0.9810000061988831 C-4.370999813079834,1.2669999599456787 -2.184999942779541,1.3769999742507935 -0.01600000075995922,1.3769999742507935 C2.6589999198913574,1.3769999742507935 4.795000076293945,1.246000051498413 6.302000045776367,0.9399999976158142 C7.057000160217285,0.7879999876022339 7.620999813079834,0.5979999899864197 8.005999565124512,0.3799999952316284 C8.392999649047852,0.16300000250339508 8.538999557495117,-0.04500000178813934 8.585000038146973,-0.20900000631809235 C8.586999893188477,-0.2150000035762787 8.588000297546387,-0.2160000056028366 8.588000297546387,-0.2160000056028366 C8.588000297546387,-0.2160000056028366 8.586999893188477,-0.21699999272823334 8.583000183105469,-0.2240000069141388 C8.557000160217285,-0.2630000114440918 8.477999687194824,-0.34599998593330383 8.284000396728516,-0.4490000009536743 C7.896999835968018,-0.6539999842643738 7.251999855041504,-0.8370000123977661 6.374000072479248,-0.9810000061988831 C4.63700008392334,-1.2680000066757202 2.1989998817443848,-1.3769999742507935 -0.35100001096725464,-1.3769999742507935 C-2.880000114440918,-1.3769999742507935 -5.079999923706055,-1.1399999856948853 -6.611000061035156,-0.7820000052452087 C-7.381999969482422,-0.6010000109672546 -7.949999809265137,-0.3970000147819519 -8.300999641418457,-0.19900000095367432 C-8.449999809265137,-0.11400000005960464 -8.53600025177002,-0.04399999976158142 -8.579999923706055,0.003000000026077032z"></path></g></g><g transform="matrix(1.5,0,0,1.5,175.11000061035156,219.4774932861328)" opacity="1" style="display: block;"><g opacity="1" transform="matrix(1,0,0,1,23.732999801635742,13.607999801635742)"><path fill="rgb(102,91,177)" fill-opacity="1" d=" M-18.849000930786133,8.003999710083008 C-19.295000076293945,7.89300012588501 -19.68600082397461,7.78000020980835 -20.132999420166016,7.61299991607666 C-21.808000564575195,7 -22.534000396728516,5.438000202178955 -22.924999237060547,3.931999921798706 C-23.482999801635742,1.5329999923706055 -23.42799949645996,-0.9760000109672546 -23.42799949645996,-3.430999994277954 C-23.42799949645996,-10.458000183105469 -22.534000396728516,-13.13599967956543 -17.062000274658203,-13.13599967956543 C-17.062000274658203,-13.13599967956543 16.781999588012695,-13.357999801635742 16.781999588012695,-13.357999801635742 C23.427000045776367,-13.357999801635742 23.482999801635742,-8.282999992370605 23.482999801635742,-1.309999942779541 C23.482999801635742,5.7170000076293945 23.148000717163086,8.170999526977539 18.01099967956543,8.170999526977539 C18.01099967956543,8.170999526977539 3.946000099182129,7.724999904632568 3.946000099182129,7.724999904632568 C3.2200000286102295,7.724999904632568 2.6059999465942383,8.0600004196167 2.3269999027252197,8.67300033569336 C2.3269999027252197,8.67300033569336 0.42899999022483826,12.633000373840332 0.42899999022483826,12.633000373840332 C0.09300000220537186,13.303000450134277 -0.9670000076293945,13.357999801635742 -1.3580000400543213,12.744000434875488 C-1.3580000400543213,12.744000434875488 -3.759000062942505,8.95199966430664 -3.759000062942505,8.95199966430664 C-4.150000095367432,8.338000297546387 -4.763999938964844,8.0600004196167 -5.546000003814697,8.0600004196167 C-6.997000217437744,8.003999710083008 -13.371999740600586,8.170999526977539 -14.767999649047852,8.22700023651123 C-16.386999130249023,8.338000297546387 -17.229000091552734,8.395000457763672 -18.849000930786133,8.003999710083008z"></path></g><g opacity="1" transform="matrix(1,0,0,1,12.638999938964844,9.218999862670898)"><path fill="rgb(255,255,255)" fill-opacity="1" d=" M-1.3370000123977661,2.5739998817443848 C-0.43700000643730164,0.8190000057220459 0.972000002861023,-0.5410000085830688 2.117000102996826,-2.124000072479248 C2.49399995803833,-2.6470000743865967 1.6269999742507935,-3.1480000019073486 1.253000020980835,-2.630000114440918 C0.10599999874830246,-1.0429999828338623 -1.2979999780654907,0.3100000023841858 -2.200000047683716,2.069999933242798 C-2.49399995803833,2.6410000324249268 -1.63100004196167,3.1470000743865967 -1.3370000123977661,2.5739998817443848z"></path></g><g opacity="1" transform="matrix(1,0,0,1,12.753999710083008,13.135000228881836)"><path fill="rgb(255,255,255)" fill-opacity="1" d=" M-0.4000000059604645,-4.317999839782715 C-0.5379999876022339,-1.4470000267028809 -0.5899999737739563,1.4450000524520874 -0.6240000128746033,4.318999767303467 C-0.6309999823570251,4.961999893188477 0.3700000047683716,4.961999893188477 0.37700000405311584,4.318999767303467 C0.41100001335144043,1.4450000524520874 0.4620000123977661,-1.4470000267028809 0.6000000238418579,-4.317999839782715 C0.6309999823570251,-4.961999893188477 -0.36899998784065247,-4.960000038146973 -0.4000000059604645,-4.317999839782715z"></path></g><g opacity="1" transform="matrix(1,0,0,1,15.73799991607666,8.690999984741211)"><path fill="rgb(255,255,255)" fill-opacity="1" d=" M-1.0889999866485596,2.2109999656677246 C-1.0889999866485596,2.2109999656677246 1.7960000038146973,-1.503999948501587 1.7960000038146973,-1.503999948501587 C2.186000108718872,-2.00600004196167 1.4839999675750732,-2.7190001010894775 1.0889999866485596,-2.2109999656677246 C1.0889999866485596,-2.2109999656677246 -1.7960000038146973,1.503999948501587 -1.7960000038146973,1.503999948501587 C-2.186000108718872,2.00600004196167 -1.4830000400543213,2.7190001010894775 -1.0889999866485596,2.2109999656677246z"></path></g><g opacity="1" transform="matrix(1,0,0,1,18.6299991607666,8.98799991607666)"><path fill="rgb(255,255,255)" fill-opacity="1" d=" M-2.749000072479248,0.26499998569488525 C-1.930999994277954,0.1420000046491623 -1.11899995803833,-0.010999999940395355 -0.3009999990463257,-0.14000000059604645 C0.16899999976158142,-0.21400000154972076 0.6430000066757202,-0.2919999957084656 1.1180000305175781,-0.32499998807907104 C1.6299999952316284,-0.3610000014305115 2.630000114440918,-0.21400000154972076 1.902999997138977,0.44200000166893005 C1.4240000247955322,0.8730000257492065 2.132999897003174,1.5789999961853027 2.609999895095825,1.1490000486373901 C3.568000078201294,0.28600001335144043 3.6500000953674316,-1.090000033378601 2.1459999084472656,-1.3250000476837158 C0.5109999775886536,-1.5800000429153442 -1.4040000438690186,-0.9399999976158142 -3.0160000324249268,-0.699999988079071 C-3.6500000953674316,-0.6050000190734863 -3.378999948501587,0.35899999737739563 -2.749000072479248,0.26499998569488525z"></path></g><g opacity="1" transform="matrix(1,0,0,1,15.194000244140625,13.312999725341797)"><path fill="rgb(255,255,255)" fill-opacity="1" d=" M0.4359999895095825,-2.194999933242798 C-0.3160000145435333,-0.8980000019073486 -0.9309999942779541,0.4620000123977661 -1.4149999618530273,1.88100004196167 C-1.6230000257492065,2.492000102996826 -0.6570000052452087,2.752000093460083 -0.44999998807907104,2.1459999084472656 C0.006000000052154064,0.8069999814033508 0.5899999737739563,-0.4650000035762787 1.2990000247955322,-1.6890000104904175 C1.6230000257492065,-2.247999906539917 0.7590000033378601,-2.753000020980835 0.4359999895095825,-2.194999933242798z"></path></g><g opacity="1" transform="matrix(1,0,0,1,17.215999603271484,13.609000205993652)"><path fill="rgb(255,255,255)" fill-opacity="1" d=" M0.11100000143051147,-3.496999979019165 C0.23600000143051147,-2.2060000896453857 0.33399999141693115,-0.9129999876022339 0.3659999966621399,0.382999986410141 C0.3799999952316284,0.968999981880188 0.47699999809265137,1.659000039100647 0.37400001287460327,2.2360000610351562 C0.21299999952316284,3.1419999599456787 -0.367000013589859,3.121000051498413 -1.1139999628067017,3.0980000495910645 C-1.7569999694824219,3.0789999961853027 -1.7569999694824219,4.078999996185303 -1.1139999628067017,4.0980000495910645 C0.1550000011920929,4.13700008392334 0.9760000109672546,4.0960001945495605 1.3200000524520874,2.6440000534057617 C1.7569999694824219,0.8059999942779541 1.2910000085830688,-1.6410000324249268 1.1109999418258667,-3.496999979019165 C1.0490000247955322,-4.131999969482422 0.04899999871850014,-4.138000011444092 0.11100000143051147,-3.496999979019165z"></path></g><g opacity="1" transform="matrix(1,0,0,1,20.65999984741211,13.147000312805176)"><path fill="rgb(255,255,255)" fill-opacity="1" d=" M-1.3329999446868896,-1.6549999713897705 C-0.718999981880188,-0.3930000066757202 0.054999999701976776,0.7689999938011169 0.46299999952316284,2.122999906539917 C0.6489999890327454,2.739000082015991 1.6139999628067017,2.4760000705718994 1.4279999732971191,1.8580000400543213 C0.9940000176429749,0.4180000126361847 0.18299999833106995,-0.8190000057220459 -0.4699999988079071,-2.1600000858306885 C-0.7509999871253967,-2.739000082015991 -1.6139999628067017,-2.2320001125335693 -1.3329999446868896,-1.6549999713897705z"></path></g><g opacity="1" transform="matrix(1,0,0,1,27.948999404907227,12.993000030517578)"><path fill="rgb(255,255,255)" fill-opacity="1" d=" M-2.006999969482422,-3.2339999675750732 C-1.4639999866485596,-3.3540000915527344 1.2489999532699585,-4.113999843597412 1.565999984741211,-3.361999988555908 C1.8240000009536743,-2.749000072479248 1.0360000133514404,-1.2359999418258667 0.8100000023841858,-0.6370000243186951 C0.07800000160932541,1.3040000200271606 -0.7870000004768372,2.553999900817871 -2.2190001010894775,4.013000011444092 C-2.6710000038146973,4.4720001220703125 -1.9639999866485596,5.179999828338623 -1.5119999647140503,4.71999979019165 C0.41499999165534973,2.756999969482422 1.5499999523162842,0.7210000157356262 2.305000066757202,-1.9559999704360962 C2.496999979019165,-2.635999917984009 2.9010000228881836,-3.940000057220459 2.2009999752044678,-4.468999862670898 C1.2610000371932983,-5.179999828338623 -1.25,-4.423999786376953 -2.2730000019073486,-4.197999954223633 C-2.9010000228881836,-4.059000015258789 -2.634999990463257,-3.0950000286102295 -2.006999969482422,-3.2339999675750732z"></path></g><g opacity="1" transform="matrix(1,0,0,1,28.142000198364258,11.666000366210938)"><path fill="rgb(255,255,255)" fill-opacity="1" d=" M-0.17900000512599945,-5.09499979019165 C-0.6290000081062317,-3.6630001068115234 -1.0870000123977661,-2.234999895095825 -1.5470000505447388,-0.8059999942779541 C-1.7020000219345093,-0.3240000009536743 -2.2219998836517334,0.6110000014305115 -2.134999990463257,1.1230000257492065 C-1.8990000486373901,2.507999897003174 0.25600001215934753,4.197000026702881 1.1050000190734863,5.214000225067139 C1.5180000066757202,5.708000183105469 2.2219998836517334,4.997000217437744 1.812000036239624,4.506999969482422 C1.0640000104904175,3.6110000610351562 -0.972000002861023,1.944000005722046 -1.0609999895095825,0.8190000057220459 C-1.1069999933242798,0.23800000548362732 -0.45500001311302185,-0.9419999718666077 -0.2879999876022339,-1.465999960899353 C0.07100000232458115,-2.5869998931884766 0.4320000112056732,-3.7060000896453857 0.7850000262260437,-4.828999996185303 C0.9789999723434448,-5.445000171661377 0.013000000268220901,-5.708000183105469 -0.17900000512599945,-5.09499979019165z"></path></g><g opacity="1" transform="matrix(1,0,0,1,33.887001037597656,11.946000099182129)"><path fill="rgb(255,255,255)" fill-opacity="1" d=" M-2.6689999103546143,-3.8519999980926514 C-1.6390000581741333,-3.9590001106262207 -0.020999999716877937,-4.539999961853027 0.9309999942779541,-4.150000095367432 C1.6799999475479126,-3.8429999351501465 1.5789999961853027,-3.747999906539917 0.6370000243186951,-3.1080000400543213 C0.1940000057220459,-2.805000066757202 -0.2759999930858612,-2.5390000343322754 -0.7289999723434448,-2.25 C-0.9369999766349792,-2.11899995803833 -1.0759999752044678,-1.7890000343322754 -0.9079999923706055,-1.565999984741211 C0.14100000262260437,-0.17900000512599945 0.6489999890327454,4.947000026702881 -1.9989999532699585,4.920000076293945 C-2.6419999599456787,4.914000034332275 -2.6429998874664307,5.914000034332275 -1.9989999532699585,5.920000076293945 C-0.4300000071525574,5.935999870300293 0.621999979019165,4.624000072479248 0.8799999952316284,3.1419999599456787 C1.1260000467300415,1.7330000400543213 0.828000009059906,-0.9160000085830688 -0.04500000178813934,-2.071000099182129 C-0.10499999672174454,-1.843000054359436 -0.16500000655651093,-1.6150000095367432 -0.2240000069141388,-1.3869999647140503 C0.5600000023841858,-1.8860000371932983 3.309000015258789,-3.1029999256134033 2.6630001068115234,-4.441999912261963 C1.9429999589920044,-5.935999870300293 -1.5440000295639038,-4.968999862670898 -2.6689999103546143,-4.8520002365112305 C-3.302999973297119,-4.7870001792907715 -3.309999942779541,-3.7860000133514404 -2.6689999103546143,-3.8519999980926514z"></path></g><g opacity="1" transform="matrix(1,0,0,1,33.68899917602539,12.03600025177002)"><path fill="rgb(255,255,255)" fill-opacity="1" d=" M-2.7730000019073486,0.8669999837875366 C-0.9279999732971191,0.19599999487400055 1.059999942779541,0.14300000667572021 2.997999906539917,-0.029999999329447746 C3.634000062942505,-0.08699999749660492 3.640000104904175,-1.0880000591278076 2.997999906539917,-1.0299999713897705 C0.9760000109672546,-0.8500000238418579 -1.1150000095367432,-0.796999990940094 -3.0399999618530273,-0.09700000286102295 C-3.640000104904175,0.12099999934434891 -3.380000114440918,1.0880000591278076 -2.7730000019073486,0.8669999837875366z"></path></g></g></g><g clip-path="url(#__lottie_element_148)" style="display: none;" transform="matrix(1,0,0,1,80.2108154296875,-159.2449951171875)" opacity="1"><g transform="matrix(0,0,0,0,157.79100036621094,250.64300537109375)" opacity="1" style="display: block;"><g opacity="1" transform="matrix(1,0,0,1,9.779000282287598,2.7950000762939453)"><path fill="rgb(255,255,255)" fill-opacity="1" d=" M3.4670000076293945,0 C3.2890000343322754,0.5400000214576721 2.0439999103546143,0.6940000057220459 0,0.6940000057220459 C-1.6890000104904175,0.6940000057220459 -3.378999948501587,0.5400000214576721 -3.4679999351501465,0 C-3.555999994277954,-0.38600000739097595 -2.0450000762939453,-0.6940000057220459 -0.08900000154972076,-0.6940000057220459 C1.777999997138977,-0.6940000057220459 3.555999994277954,-0.46299999952316284 3.4670000076293945,0z"></path></g><g opacity="1" transform="matrix(1,0,0,1,10.015000343322754,2.7950000762939453)"><path fill="rgb(255,255,255)" fill-opacity="1" d=" M-6.857999801635742,-1.9210000038146973 C-5.223999977111816,-2.303999900817871 -2.937000036239624,-2.5450000762939453 -0.35100001096725464,-2.5450000762939453 C2.2130000591278076,-2.5450000762939453 4.7230000495910645,-2.437000036239624 6.550000190734863,-2.134999990463257 C7.453999996185303,-1.9859999418258667 8.244999885559082,-1.781999945640564 8.795000076293945,-1.4889999628067017 C9.071000099182129,-1.343000054359436 9.336999893188477,-1.1480000019073486 9.51200008392334,-0.8799999952316284 C9.704999923706055,-0.5860000252723694 9.765000343322754,-0.2370000034570694 9.663000106811523,0.12099999934434891 C9.5,0.6980000138282776 9.069000244140625,1.1109999418258667 8.541999816894531,1.4079999923706055 C8.012999534606934,1.7059999704360962 7.323999881744385,1.9240000247955322 6.517000198364258,2.0869998931884766 C4.900000095367432,2.4149999618530273 2.6760001182556152,2.5450000762939453 -0.01600000075995922,2.5450000762939453 C-2.2070000171661377,2.5450000762939453 -4.465000152587891,2.434999942779541 -6.2179999351501465,2.132999897003174 C-7.091000080108643,1.9830000400543213 -7.873000144958496,1.7799999713897705 -8.467000007629395,1.5 C-9.027999877929688,1.2350000143051147 -9.595000267028809,0.8180000185966492 -9.708999633789062,0.14499999582767487 C-9.708999633789062,0.14499999582767487 -9.710000038146973,0.13899999856948853 -9.710000038146973,0.13899999856948853 C-9.765000343322754,-0.20200000703334808 -9.642000198364258,-0.4959999918937683 -9.470000267028809,-0.7129999995231628 C-9.307000160217285,-0.9210000038146973 -9.079999923706055,-1.0870000123977661 -8.83899974822998,-1.2239999771118164 C-8.354000091552734,-1.4989999532699585 -7.669000148773193,-1.7309999465942383 -6.857999801635742,-1.9210000038146973z M-8.579999923706055,0.003000000026077032 C-8.531000137329102,0.0949999988079071 -8.388999938964844,0.2529999911785126 -8.001999855041504,0.4359999895095825 C-7.539999961853027,0.6539999842643738 -6.870999813079834,0.8370000123977661 -6.034999847412109,0.9810000061988831 C-4.370999813079834,1.2669999599456787 -2.184999942779541,1.3769999742507935 -0.01600000075995922,1.3769999742507935 C2.6589999198913574,1.3769999742507935 4.795000076293945,1.246000051498413 6.302000045776367,0.9399999976158142 C7.057000160217285,0.7879999876022339 7.620999813079834,0.5979999899864197 8.005999565124512,0.3799999952316284 C8.392999649047852,0.16300000250339508 8.538999557495117,-0.04500000178813934 8.585000038146973,-0.20900000631809235 C8.586999893188477,-0.2150000035762787 8.588000297546387,-0.2160000056028366 8.588000297546387,-0.2160000056028366 C8.588000297546387,-0.2160000056028366 8.586999893188477,-0.21699999272823334 8.583000183105469,-0.2240000069141388 C8.557000160217285,-0.2630000114440918 8.477999687194824,-0.34599998593330383 8.284000396728516,-0.4490000009536743 C7.896999835968018,-0.6539999842643738 7.251999855041504,-0.8370000123977661 6.374000072479248,-0.9810000061988831 C4.63700008392334,-1.2680000066757202 2.1989998817443848,-1.3769999742507935 -0.35100001096725464,-1.3769999742507935 C-2.880000114440918,-1.3769999742507935 -5.079999923706055,-1.1399999856948853 -6.611000061035156,-0.7820000052452087 C-7.381999969482422,-0.6010000109672546 -7.949999809265137,-0.3970000147819519 -8.300999641418457,-0.19900000095367432 C-8.449999809265137,-0.11400000005960464 -8.53600025177002,-0.04399999976158142 -8.579999923706055,0.003000000026077032z"></path></g></g><g transform="matrix(0.003627019003033638,0,0,0.003627019003033638,156.39024353027344,230.9509735107422)" opacity="1" style="display: block;"><g opacity="1" transform="matrix(1,0,0,1,30.232999801635742,13.607000350952148)"><path fill="rgb(102,91,177)" fill-opacity="1" d=" M-25.349000930786133,8.003000259399414 C-25.79599952697754,7.892000198364258 -26.18600082397461,7.78000020980835 -26.632999420166016,7.61299991607666 C-28.308000564575195,6.999000072479248 -29.034000396728516,5.438000202178955 -29.424999237060547,3.931999921798706 C-29.982999801635742,1.5329999923706055 -29.92799949645996,-0.9750000238418579 -29.92799949645996,-3.430000066757202 C-29.92799949645996,-10.456999778747559 -29.034000396728516,-13.135000228881836 -23.562000274658203,-13.135000228881836 C-23.562000274658203,-13.135000228881836 23.281999588012695,-13.357000350952148 23.281999588012695,-13.357000350952148 C29.926000595092773,-13.357000350952148 29.982999801635742,-8.282999992370605 29.982999801635742,-1.3109999895095825 C29.982999801635742,5.7170000076293945 29.648000717163086,8.17199993133545 24.510000228881836,8.17199993133545 C24.510000228881836,8.17199993133545 5.446000099182129,7.724999904632568 5.446000099182129,7.724999904632568 C4.71999979019165,7.724999904632568 4.105999946594238,8.0600004196167 3.8269999027252197,8.673999786376953 C3.8269999027252197,8.673999786376953 1.9279999732971191,12.633000373840332 1.9279999732971191,12.633000373840332 C1.593000054359436,13.302000045776367 0.5320000052452087,13.357999801635742 0.1420000046491623,12.744999885559082 C0.1420000046491623,12.744999885559082 -2.259000062942505,8.95199966430664 -2.259000062942505,8.95199966430664 C-2.6500000953674316,8.33899974822998 -3.265000104904175,8.0600004196167 -4.046000003814697,8.0600004196167 C-5.498000144958496,8.003999710083008 -18.871999740600586,8.17199993133545 -20.26799964904785,8.227999687194824 C-21.886999130249023,8.33899974822998 -23.729999542236328,8.394000053405762 -25.349000930786133,8.003000259399414z"></path></g><g opacity="1" transform="matrix(1,0,0,1,20.148000717163086,12.20199966430664)"><path fill="rgb(255,255,255)" fill-opacity="1" d=" M-0.0989999994635582,2.5829999446868896 C0.19900000095367432,2.5829999446868896 0.4869999885559082,2.5280001163482666 0.7620000243186951,2.4189999103546143 C1.0479999780654907,2.296999931335449 1.2990000247955322,2.127000093460083 1.5130000114440918,1.9079999923706055 C1.7400000095367432,1.687999963760376 1.9190000295639038,1.4210000038146973 2.0510001182556152,1.1039999723434448 C2.181999921798706,0.7879999876022339 2.246999979019165,0.42399999499320984 2.246999979019165,0.009999999776482582 C2.246999979019165,-0.367000013589859 2.200000047683716,-0.7149999737739563 2.1040000915527344,-1.031000018119812 C2.009000062942505,-1.3480000495910645 1.878000020980835,-1.6150000095367432 1.7100000381469727,-1.8350000381469727 C1.5429999828338623,-2.065000057220459 1.3450000286102295,-2.242000102996826 1.1180000305175781,-2.364000082015991 C0.8920000195503235,-2.484999895095825 0.6470000147819519,-2.546999931335449 0.38499999046325684,-2.546999931335449 C0.07400000095367432,-2.546999931335449 -0.24199999868869781,-2.492000102996826 -0.5649999976158142,-2.381999969482422 C-0.875,-2.2850000858306885 -1.1549999713897705,-2.132999897003174 -1.406000018119812,-1.9259999990463257 C-1.656999945640564,-1.7309999465942383 -1.8650000095367432,-1.4759999513626099 -2.0329999923706055,-1.159000039100647 C-2.187999963760376,-0.8550000190734863 -2.265000104904175,-0.5019999742507935 -2.265000104904175,-0.10100000351667404 C-2.265000104904175,0.2280000001192093 -2.2060000896453857,0.5569999814033508 -2.0869998931884766,0.8849999904632568 C-1.9670000076293945,1.2009999752044678 -1.805999994277954,1.4880000352859497 -1.6030000448226929,1.7430000305175781 C-1.399999976158142,1.9989999532699585 -1.1670000553131104,2.2060000896453857 -0.9049999713897705,2.364000082015991 C-0.6420000195503235,2.509999990463257 -0.37400001287460327,2.5829999446868896 -0.0989999994635582,2.5829999446868896z M-3.322000026702881,0.08299999684095383 C-3.322000026702881,-0.6840000152587891 -3.2200000286102295,-1.3350000381469727 -3.0169999599456787,-1.8700000047683716 C-2.815000057220459,-2.4049999713897705 -2.5460000038146973,-2.8389999866485596 -2.2119998931884766,-3.1670000553131104 C-1.878000020980835,-3.507999897003174 -1.5019999742507935,-3.75 -1.0839999914169312,-3.8959999084472656 C-0.6660000085830688,-4.054999828338623 -0.2409999966621399,-4.135000228881836 0.18799999356269836,-4.135000228881836 C1.1790000200271606,-4.135000228881836 1.9479999542236328,-3.750999927520752 2.496999979019165,-2.9839999675750732 C3.0460000038146973,-2.2309999465942383 3.322000026702881,-1.2070000171661377 3.322000026702881,0.08299999684095383 C3.322000026702881,0.6909999847412109 3.2260000705718994,1.2450000047683716 3.0350000858306885,1.7430000305175781 C2.8450000286102295,2.2300000190734863 2.5940001010894775,2.6559998989105225 2.2829999923706055,3.0209999084472656 C1.9730000495910645,3.374000072479248 1.6150000095367432,3.6459999084472656 1.2089999914169312,3.8420000076293945 C0.8149999976158142,4.035999774932861 0.40799999237060547,4.135000228881836 -0.008999999612569809,4.135000228881836 C-0.46299999952316284,4.135000228881836 -0.8930000066757202,4.013000011444092 -1.2990000247955322,3.7699999809265137 C-1.6929999589920044,3.5139999389648438 -2.0450000762939453,3.190000057220459 -2.3550000190734863,2.8010001182556152 C-2.6540000438690186,2.4119999408721924 -2.8919999599456787,1.9800000190734863 -3.071000099182129,1.50600004196167 C-3.239000082015991,1.0199999809265137 -3.322000026702881,0.5450000166893005 -3.322000026702881,0.08299999684095383z"></path></g><g opacity="1" transform="matrix(1,0,0,1,10.652999877929688,11.303000450134277)"><path fill="rgb(255,255,255)" fill-opacity="1" d=" M-0.6460000276565552,-4.408999919891357 C-0.5009999871253967,-1.468999981880188 -0.7490000128746033,1.4700000286102295 -0.6330000162124634,4.408999919891357 C-0.6019999980926514,5.210999965667725 0.6489999890327454,5.215000152587891 0.6179999709129333,4.408999919891357 C0.5019999742507935,1.4700000286102295 0.7490000128746033,-1.468999981880188 0.6039999723434448,-4.408999919891357 C0.5640000104904175,-5.210000038146973 -0.6859999895095825,-5.215000152587891 -0.6460000276565552,-4.408999919891357z"></path></g><g opacity="1" transform="matrix(1,0,0,1,13.229999542236328,8.86400032043457)"><path fill="rgb(255,255,255)" fill-opacity="1" d=" M-2.3499999046325684,-1.3680000305175781 C-1.3049999475479126,-1.565000057220459 0.9039999842643738,-1.7649999856948853 1.496000051498413,-0.6499999761581421 C2.240999937057495,0.753000020980835 0.5419999957084656,1.3140000104904175 -0.421999990940094,1.5829999446868896 C-1.1950000524520874,1.7990000247955322 -0.8669999837875366,3.005000114440918 -0.08900000154972076,2.7880001068115234 C1.6019999980926514,2.315999984741211 3.4719998836517334,1.1950000524520874 2.76200008392334,-0.9100000262260437 C2.055999994277954,-3.00600004196167 -0.9350000023841858,-2.9030001163482666 -2.681999921798706,-2.572000026702881 C-3.4719998836517334,-2.4230000972747803 -3.13700008392334,-1.218999981880188 -2.3499999046325684,-1.3680000305175781z"></path></g><g opacity="1" transform="matrix(1,0,0,1,13.060999870300293,13.680000305175781)"><path fill="rgb(255,255,255)" fill-opacity="1" d=" M-2.430000066757202,2.630000114440918 C-0.8489999771118164,2.933000087738037 2.4730000495910645,3.253999948501587 2.993000030517578,1.2009999752044678 C3.2109999656677246,0.3409999907016754 3.2209999561309814,-0.8479999899864197 2.7950000762939453,-1.6519999504089355 C2.259999990463257,-2.6589999198913574 0.8230000138282776,-2.989000082015991 -0.20200000703334808,-3.1389999389648438 C-0.9890000224113464,-3.253999948501587 -1.3279999494552612,-2.0480000972747803 -0.5339999794960022,-1.9320000410079956 C0.11599999666213989,-1.8380000591278076 1.2730000019073486,-1.690999984741211 1.6740000247955322,-1.0870000123977661 C1.9769999980926514,-0.6290000081062317 1.937999963760376,0.3580000102519989 1.7879999876022339,0.8679999709129333 C1.4819999933242798,1.9079999923706055 -1.2719999551773071,1.5820000171661377 -2.0980000495910645,1.4240000247955322 C-2.884000062942505,1.2730000019073486 -3.2209999561309814,2.4790000915527344 -2.430000066757202,2.630000114440918z"></path></g><g opacity="1" transform="matrix(1,0,0,1,24.944000244140625,12.104999542236328)"><path fill="rgb(255,255,255)" fill-opacity="1" d=" M-0.7089999914169312,-3.7309999465942383 C-0.460999995470047,-1.2489999532699585 -0.6290000081062317,1.2380000352859497 -0.6309999823570251,3.7269999980926514 C-0.6320000290870667,4.5320000648498535 0.6179999709129333,4.5329999923706055 0.6190000176429749,3.7269999980926514 C0.6209999918937683,1.2380000352859497 0.7889999747276306,-1.2489999532699585 0.5410000085830688,-3.7309999465942383 C0.4620000123977661,-4.52400016784668 -0.7889999747276306,-4.5329999923706055 -0.7089999914169312,-3.7309999465942383z"></path></g><g opacity="1" transform="matrix(1,0,0,1,27.908000946044922,12.279999732971191)"><path fill="rgb(255,255,255)" fill-opacity="1" d=" M-2.250999927520752,-1.9329999685287476 C-1.9140000343322754,-3.0260000228881836 -0.25600001215934753,-3.049999952316284 0.18700000643730164,-1.9910000562667847 C0.37700000405311584,-1.5369999408721924 0.24300000071525574,-0.6650000214576721 0.24899999797344208,-0.17499999701976776 C0.2619999945163727,0.8640000224113464 -0.003000000026077032,2.2230000495910645 0.367000013589859,3.2160000801086426 C0.8019999861717224,4.385000228881836 2.4100000858306885,4.650000095367432 3.196000099182129,3.6700000762939453 C3.694000005722046,3.0480000972747803 2.815000057220459,2.1589999198913574 2.311000108718872,2.7860000133514404 C1.6269999742507935,3.6389999389648438 1.5,1.4220000505447388 1.5019999742507935,0.9900000095367432 C1.5049999952316284,0.2930000126361847 1.503000020980835,-0.4059999883174896 1.4789999723434448,-1.1030000448226929 C1.4479999542236328,-1.9930000305175781 1.50600004196167,-3.1510000228881836 0.671999990940094,-3.7160000801086426 C-0.7039999961853027,-4.650000095367432 -2.989000082015991,-3.7829999923706055 -3.4570000171661377,-2.265000104904175 C-3.694000005722046,-1.4950000047683716 -2.48799991607666,-1.1640000343322754 -2.250999927520752,-1.9329999685287476z"></path></g><g opacity="1" transform="matrix(1,0,0,1,31.024999618530273,15.690999984741211)"><path fill="rgb(255,255,255)" fill-opacity="1" d=" M1.2699999809265137,-6.436999797821045 C1.562000036239624,-4.130000114440918 1.746000051498413,-1.8179999589920044 1.940999984741211,0.4970000088214874 C2.003999948501587,1.2359999418258667 2.174999952316284,2.1089999675750732 1.968999981880188,2.8320000171661377 C1.2960000038146973,5.186999797821045 -1.569000005722046,4.514999866485596 -1.9900000095367432,2.328000068664551 C-2.1419999599456787,1.5390000343322754 -3.3469998836517334,1.8730000257492065 -3.194999933242798,2.6600000858306885 C-2.686000108718872,5.304999828338623 0.5569999814033508,7.234000205993652 2.555999994277954,4.611999988555908 C3.3469998836517334,3.5739998817443848 3.3269999027252197,2.1579999923706055 3.2330000400543213,0.921999990940094 C3.0460000038146973,-1.534000039100647 2.8299999237060547,-3.992000102996826 2.5199999809265137,-6.436999797821045 C2.4200000762939453,-7.223999977111816 1.1690000295639038,-7.234000205993652 1.2699999809265137,-6.436999797821045z"></path></g><g opacity="1" transform="matrix(1,0,0,1,32.38100051879883,6.999000072479248)"><path fill="rgb(255,255,255)" fill-opacity="1" d=" M0.0010000000474974513,0.625 C0.8050000071525574,0.625 0.8059999942779541,-0.625 0.0010000000474974513,-0.625 C-0.8040000200271606,-0.625 -0.8050000071525574,0.625 0.0010000000474974513,0.625z"></path></g><g opacity="1" transform="matrix(1,0,0,1,37.983001708984375,12.279000282287598)"><path fill="rgb(255,255,255)" fill-opacity="1" d=" M-0.3930000066757202,-3.884999990463257 C-2.2730000019073486,-3.684999942779541 -2.9769999980926514,-2.122999906539917 -2.999000072479248,-0.37599998712539673 C-3.0230000019073486,1.590999960899353 -2.3410000801086426,3.4189999103546143 -0.20600000023841858,3.7230000495910645 C1.847000002861023,4.015999794006348 2.6649999618530273,2.377000093460083 2.8350000381469727,0.5830000042915344 C3.0230000019073486,-1.406999945640564 1.9570000171661377,-3.4560000896453857 -0.12200000137090683,-3.86299991607666 C-0.9089999794960022,-4.017000198364258 -1.246000051498413,-2.811000108718872 -0.4560000002384186,-2.6559998989105225 C0.8220000267028809,-2.4059998989105225 1.6180000305175781,-1.2699999809265137 1.621999979019165,0.012000000104308128 C1.625,1.2200000286102295 1.3480000495910645,2.7339999675750732 -0.2150000035762787,2.4600000381469727 C-1.4470000267028809,2.24399995803833 -1.6699999570846558,1.0880000591278076 -1.7269999980926514,0.032999999821186066 C-1.781999945640564,-0.9760000109672546 -1.6929999589920044,-2.496000051498413 -0.3930000066757202,-2.634999990463257 C0.39899998903274536,-2.7200000286102295 0.40700000524520874,-3.9709999561309814 -0.3930000066757202,-3.884999990463257z"></path></g><g opacity="1" transform="matrix(1,0,0,1,43.983001708984375,12.270000457763672)"><path fill="rgb(255,255,255)" fill-opacity="1" d=" M-2.5869998931884766,-3.2249999046325684 C-2.4210000038146973,-1.0110000371932983 -3.065999984741211,4.122000217437744 0.421999990940094,4.129000186920166 C1.746000051498413,4.130000114440918 2.49399995803833,3.2850000858306885 2.697999954223633,2.049999952316284 C2.986999988555908,0.3089999854564667 3.065999984741211,-1.5859999656677246 2.8350000381469727,-3.3329999446868896 C2.7309999465942383,-4.119999885559082 1.4800000190734863,-4.130000114440918 1.5850000381469727,-3.3329999446868896 C1.7230000495910645,-2.2939999103546143 1.718000054359436,-1.2719999551773071 1.6519999504089355,-0.22699999809265137 C1.6009999513626099,0.5789999961853027 1.7699999809265137,2.453000068664551 0.8080000281333923,2.8269999027252197 C-1.6720000505447388,3.7899999618530273 -1.253000020980835,-2.1019999980926514 -1.3370000123977661,-3.2249999046325684 C-1.3969999551773071,-4.021999835968018 -2.6470000743865967,-4.0289998054504395 -2.5869998931884766,-3.2249999046325684z"></path></g><g opacity="1" transform="matrix(1,0,0,1,46.891998291015625,14.661999702453613)"><path fill="rgb(255,255,255)" fill-opacity="1" d=" M-1.343000054359436,-1.0809999704360962 C-1.4509999752044678,-0.39100000262260437 -1.4079999923706055,0.21299999952316284 -1.0720000267028809,0.8309999704360962 C-0.7260000109672546,1.4670000076293945 -0.041999999433755875,1.8730000257492065 0.6840000152587891,1.649999976158142 C1.4509999752044678,1.4140000343322754 1.1239999532699585,0.20800000429153442 0.35199999809265137,0.4449999928474426 C-0.13199999928474426,0.593999981880188 -0.17499999701976776,-0.5130000114440918 -0.1379999965429306,-0.746999979019165 C-0.014000000432133675,-1.534000039100647 -1.218000054359436,-1.8739999532699585 -1.343000054359436,-1.0809999704360962z"></path></g><g opacity="1" transform="matrix(1,0,0,1,49.7869987487793,12.45300006866455)"><path fill="rgb(255,255,255)" fill-opacity="1" d=" M-0.6349999904632568,-3.5169999599456787 C-0.5509999990463257,-2.446000099182129 -0.5199999809265137,-1.375 -0.4950000047683716,-0.30000001192092896 C-0.4790000021457672,0.3659999966621399 -0.10100000351667404,2.2639999389648438 -0.5329999923706055,2.806999921798706 C-1.0290000438690186,3.430000066757202 -0.14900000393390656,4.321000099182129 0.35100001096725464,3.690999984741211 C1.0290000438690186,2.8389999866485596 0.828000009059906,1.937999963760376 0.7879999876022339,0.8999999761581421 C0.7310000061988831,-0.5740000009536743 0.7300000190734863,-2.0460000038146973 0.6150000095367432,-3.5169999599456787 C0.5529999732971191,-4.314000129699707 -0.6970000267028809,-4.321000099182129 -0.6349999904632568,-3.5169999599456787z"></path></g><g opacity="1" transform="matrix(1,0,0,1,51.70800018310547,10.519000053405762)"><path fill="rgb(255,255,255)" fill-opacity="1" d=" M-1.2009999752044678,0.4790000021457672 C-1.180999994277954,-0.12999999523162842 -0.718999981880188,-0.2849999964237213 -0.18799999356269836,-0.3889999985694885 C0.07500000298023224,-0.4410000145435333 0.35899999737739563,-0.48899999260902405 0.621999979019165,-0.4230000078678131 C0.7599999904632568,-0.3880000114440918 1.3600000143051147,-0.027000000700354576 1.1069999933242798,0.24500000476837158 C0.5600000023841858,0.8330000042915344 1.440999984741211,1.7200000286102295 1.9900000095367432,1.128000020980835 C2.4769999980926514,0.6039999723434448 2.4700000286102295,-0.11900000274181366 2.1389999389648438,-0.734000027179718 C1.777999997138977,-1.4049999713897705 1.0529999732971191,-1.7200000286102295 0.3070000112056732,-1.7020000219345093 C-1.0700000524520874,-1.6679999828338623 -2.4019999504089355,-1.0420000553131104 -2.4509999752044678,0.4790000021457672 C-2.4769999980926514,1.2829999923706055 -1.2269999980926514,1.2829999923706055 -1.2009999752044678,0.4790000021457672z"></path></g></g></g><g clip-path="url(#__lottie_element_138)" style="display: none;" transform="matrix(1,0,0,1,62.05511474609375,-159.2449951171875)" opacity="1"><g transform="matrix(0,0,0,0,176.29100036621094,253.14300537109375)" opacity="1" style="display: block;"><g opacity="1" transform="matrix(1,0,0,1,9.779000282287598,2.7950000762939453)"><path fill="rgb(255,255,255)" fill-opacity="1" d=" M3.4670000076293945,0 C3.2890000343322754,0.5400000214576721 2.0439999103546143,0.6940000057220459 0,0.6940000057220459 C-1.6890000104904175,0.6940000057220459 -3.378999948501587,0.5400000214576721 -3.4679999351501465,0 C-3.555999994277954,-0.38600000739097595 -2.0450000762939453,-0.6940000057220459 -0.08900000154972076,-0.6940000057220459 C1.777999997138977,-0.6940000057220459 3.555999994277954,-0.46299999952316284 3.4670000076293945,0z"></path></g><g opacity="1" transform="matrix(1,0,0,1,10.015000343322754,2.7950000762939453)"><path fill="rgb(255,255,255)" fill-opacity="1" d=" M-6.857999801635742,-1.9210000038146973 C-5.223999977111816,-2.303999900817871 -2.937000036239624,-2.5450000762939453 -0.35100001096725464,-2.5450000762939453 C2.2130000591278076,-2.5450000762939453 4.7230000495910645,-2.437000036239624 6.550000190734863,-2.134999990463257 C7.453999996185303,-1.9859999418258667 8.244999885559082,-1.781999945640564 8.795000076293945,-1.4889999628067017 C9.071000099182129,-1.343000054359436 9.336999893188477,-1.1480000019073486 9.51200008392334,-0.8799999952316284 C9.704999923706055,-0.5860000252723694 9.765000343322754,-0.2370000034570694 9.663000106811523,0.12099999934434891 C9.5,0.6980000138282776 9.069000244140625,1.1109999418258667 8.541999816894531,1.4079999923706055 C8.012999534606934,1.7059999704360962 7.323999881744385,1.9240000247955322 6.517000198364258,2.0869998931884766 C4.900000095367432,2.4149999618530273 2.6760001182556152,2.5450000762939453 -0.01600000075995922,2.5450000762939453 C-2.2070000171661377,2.5450000762939453 -4.465000152587891,2.434999942779541 -6.2179999351501465,2.132999897003174 C-7.091000080108643,1.9830000400543213 -7.873000144958496,1.7799999713897705 -8.467000007629395,1.5 C-9.027999877929688,1.2350000143051147 -9.595000267028809,0.8180000185966492 -9.708999633789062,0.14499999582767487 C-9.708999633789062,0.14499999582767487 -9.710000038146973,0.13899999856948853 -9.710000038146973,0.13899999856948853 C-9.765000343322754,-0.20200000703334808 -9.642000198364258,-0.4959999918937683 -9.470000267028809,-0.7129999995231628 C-9.307000160217285,-0.9210000038146973 -9.079999923706055,-1.0870000123977661 -8.83899974822998,-1.2239999771118164 C-8.354000091552734,-1.4989999532699585 -7.669000148773193,-1.7309999465942383 -6.857999801635742,-1.9210000038146973z M-8.579999923706055,0.003000000026077032 C-8.531000137329102,0.0949999988079071 -8.388999938964844,0.2529999911785126 -8.001999855041504,0.4359999895095825 C-7.539999961853027,0.6539999842643738 -6.870999813079834,0.8370000123977661 -6.034999847412109,0.9810000061988831 C-4.370999813079834,1.2669999599456787 -2.184999942779541,1.3769999742507935 -0.01600000075995922,1.3769999742507935 C2.6589999198913574,1.3769999742507935 4.795000076293945,1.246000051498413 6.302000045776367,0.9399999976158142 C7.057000160217285,0.7879999876022339 7.620999813079834,0.5979999899864197 8.005999565124512,0.3799999952316284 C8.392999649047852,0.16300000250339508 8.538999557495117,-0.04500000178813934 8.585000038146973,-0.20900000631809235 C8.586999893188477,-0.2150000035762787 8.588000297546387,-0.2160000056028366 8.588000297546387,-0.2160000056028366 C8.588000297546387,-0.2160000056028366 8.586999893188477,-0.21699999272823334 8.583000183105469,-0.2240000069141388 C8.557000160217285,-0.2630000114440918 8.477999687194824,-0.34599998593330383 8.284000396728516,-0.4490000009536743 C7.896999835968018,-0.6539999842643738 7.251999855041504,-0.8370000123977661 6.374000072479248,-0.9810000061988831 C4.63700008392334,-1.2680000066757202 2.1989998817443848,-1.3769999742507935 -0.35100001096725464,-1.3769999742507935 C-2.880000114440918,-1.3769999742507935 -5.079999923706055,-1.1399999856948853 -6.611000061035156,-0.7820000052452087 C-7.381999969482422,-0.6010000109672546 -7.949999809265137,-0.3970000147819519 -8.300999641418457,-0.19900000095367432 C-8.449999809265137,-0.11400000005960464 -8.53600025177002,-0.04399999976158142 -8.579999923706055,0.003000000026077032z"></path></g></g><g transform="matrix(0.01880098506808281,0,0,0.01880098506808281,176.53448486328125,232.49591064453125)" opacity="1" style="display: block;"><g opacity="1" transform="matrix(1,0,0,1,24.732999801635742,13.607999801635742)"><path fill="rgb(102,91,177)" fill-opacity="1" d=" M-19.849000930786133,8.003999710083008 C-20.29599952697754,7.892000198364258 -20.68600082397461,7.781000137329102 -21.132999420166016,7.61299991607666 C-22.808000564575195,7 -23.534000396728516,5.438000202178955 -23.924999237060547,3.931999921798706 C-24.482999801635742,1.534000039100647 -24.42799949645996,-0.9760000109672546 -24.42799949645996,-3.430000066757202 C-24.42799949645996,-10.458000183105469 -23.534000396728516,-13.135000228881836 -18.062000274658203,-13.135000228881836 C-18.062000274658203,-13.135000228881836 17.781999588012695,-13.357999801635742 17.781999588012695,-13.357999801635742 C24.427000045776367,-13.357999801635742 24.482999801635742,-8.282999992370605 24.482999801635742,-1.309999942779541 C24.482999801635742,5.7170000076293945 24.148000717163086,8.170999526977539 19.01099967956543,8.170999526977539 C19.01099967956543,8.170999526977539 3.946000099182129,7.724999904632568 3.946000099182129,7.724999904632568 C3.2200000286102295,7.724999904632568 2.6059999465942383,8.0600004196167 2.3269999027252197,8.67300033569336 C2.3269999027252197,8.67300033569336 0.42800000309944153,12.633000373840332 0.42800000309944153,12.633000373840332 C0.09300000220537186,13.302000045776367 -0.9670000076293945,13.357999801635742 -1.3580000400543213,12.744999885559082 C-1.3580000400543213,12.744999885559082 -3.759000062942505,8.95199966430664 -3.759000062942505,8.95199966430664 C-4.150000095367432,8.338000297546387 -4.763999938964844,8.0600004196167 -5.546000003814697,8.0600004196167 C-6.997000217437744,8.003999710083008 -14.371999740600586,8.170999526977539 -15.767999649047852,8.22700023651123 C-17.386999130249023,8.338000297546387 -18.229000091552734,8.395000457763672 -19.849000930786133,8.003999710083008z"></path></g><g opacity="1" transform="matrix(1,0,0,1,12.76099967956543,11.770999908447266)"><path fill="rgb(255,255,255)" fill-opacity="1" d=" M-3.2939999103546143,3.8410000801086426 C-3.2939999103546143,3.256999969482422 -3.2890000343322754,2.734999895095825 -3.2769999504089355,2.2730000019073486 C-3.265000104904175,1.809999942779541 -3.257999897003174,1.3890000581741333 -3.257999897003174,1.0119999647140503 C-3.257999897003174,0.3919999897480011 -3.265000104904175,-0.19300000369548798 -3.2769999504089355,-0.7400000095367432 C-3.2769999504089355,-0.7400000095367432 -3.2769999504089355,-2.2730000019073486 -3.2769999504089355,-2.2730000019073486 C-3.2769999504089355,-3.1489999294281006 -3.240000009536743,-3.8429999351501465 -3.1689999103546143,-4.354000091552734 C-3.0969998836517334,-4.864999771118164 -2.930000066757202,-5.119999885559082 -2.6670000553131104,-5.119999885559082 C-2.5360000133514404,-5.119999885559082 -2.4119999408721924,-5.004000186920166 -2.2920000553131104,-4.7729997634887695 C-2.1610000133514404,-4.540999889373779 -2.0940001010894775,-4.309999942779541 -2.0940001010894775,-4.078999996185303 C-2.0940001010894775,-3.5439999103546143 -2.1010000705718994,-2.990999937057495 -2.11299991607666,-2.4189999103546143 C-2.11299991607666,-2.4189999103546143 -2.11299991607666,-0.7770000100135803 -2.11299991607666,-0.7770000100135803 C-2.11299991607666,-0.7770000100135803 2.0769999027252197,-0.7770000100135803 2.0769999027252197,-0.7770000100135803 C2.065000057220459,-1.409000039100647 2.053999900817871,-1.9199999570846558 2.0420000553131104,-2.309000015258789 C2.0420000553131104,-2.309000015258789 2.0420000553131104,-3.240000009536743 2.0420000553131104,-3.240000009536743 C2.0420000553131104,-3.240000009536743 2.0420000553131104,-3.7320001125335693 2.0420000553131104,-3.7320001125335693 C2.0420000553131104,-3.7320001125335693 2.0420000553131104,-3.934000015258789 2.0420000553131104,-3.934000015258789 C2.053999900817871,-4.275000095367432 2.0889999866485596,-4.565999984741211 2.1480000019073486,-4.809000015258789 C2.2079999446868896,-5.052999973297119 2.3510000705718994,-5.173999786376953 2.578000068664551,-5.173999786376953 C2.8410000801086426,-5.173999786376953 3.009000062942505,-5.034999847412109 3.0810000896453857,-4.755000114440918 C3.1640000343322754,-4.474999904632568 3.2060000896453857,-4.067999839782715 3.2060000896453857,-3.5329999923706055 C3.2060000896453857,-3.5329999923706055 3.2060000896453857,-3.257999897003174 3.2060000896453857,-3.257999897003174 C3.2060000896453857,-3.1600000858306885 3.200000047683716,-3.009000062942505 3.187999963760376,-2.802999973297119 C3.187999963760376,-2.802999973297119 3.187999963760376,-1.9989999532699585 3.187999963760376,-1.9989999532699585 C3.187999963760376,-1.9989999532699585 3.187999963760376,-0.7020000219345093 3.187999963760376,-0.7020000219345093 C3.187999963760376,0.5379999876022339 3.2769999504089355,1.777999997138977 3.2769999504089355,3.0199999809265137 C3.2890000343322754,3.688999891281128 3.2939999103546143,4.109000205993652 3.2939999103546143,4.2789998054504395 C3.2939999103546143,4.5229997634887695 3.240999937057495,4.736999988555908 3.132999897003174,4.919000148773193 C3.0260000228881836,5.089000225067139 2.877000093460083,5.173999786376953 2.686000108718872,5.173999786376953 C2.4719998836517334,5.173999786376953 2.309000015258789,5.089000225067139 2.2019999027252197,4.919000148773193 C2.0950000286102295,4.749000072479248 2.046999931335449,4.414000034332275 2.059000015258789,3.9149999618530273 C2.059000015258789,3.9149999618530273 2.11299991607666,0.8669999837875366 2.11299991607666,0.8669999837875366 C2.11299991607666,0.8669999837875366 0.4300000071525574,0.8669999837875366 0.4300000071525574,0.8669999837875366 C0.4300000071525574,0.8669999837875366 -0.5199999809265137,0.8669999837875366 -0.5199999809265137,0.8669999837875366 C-0.7699999809265137,0.8669999837875366 -0.9909999966621399,0.8730000257492065 -1.1820000410079956,0.8849999904632568 C-1.3730000257492065,0.8849999904632568 -1.5399999618530273,0.890999972820282 -1.684000015258789,0.9039999842643738 C-1.8270000219345093,0.9160000085830688 -1.9700000286102295,0.9269999861717224 -2.11299991607666,0.9390000104904175 C-2.1010000705718994,1.6449999809265137 -2.0940001010894775,2.2170000076293945 -2.0940001010894775,2.6559998989105225 C-2.0829999446868896,3.0940001010894775 -2.0769999027252197,3.440000057220459 -2.0769999027252197,3.694999933242798 C-2.065999984741211,3.950000047683716 -2.059999942779541,4.132999897003174 -2.059999942779541,4.242000102996826 C-2.059999942779541,4.242000102996826 -2.059999942779541,4.480000019073486 -2.059999942779541,4.480000019073486 C-2.071000099182129,4.6620001792907715 -2.1600000858306885,4.820000171661377 -2.3269999027252197,4.953999996185303 C-2.4820001125335693,5.0879998207092285 -2.621000051498413,5.156000137329102 -2.740000009536743,5.156000137329102 C-2.9790000915527344,5.156000137329102 -3.134000062942505,5.0289998054504395 -3.2060000896453857,4.7729997634887695 C-3.265000104904175,4.505000114440918 -3.2939999103546143,4.193999767303467 -3.2939999103546143,3.8410000801086426z"></path></g><g opacity="1" transform="matrix(1,0,0,1,36.50299835205078,13.133999824523926)"><path fill="rgb(255,255,255)" fill-opacity="1" d=" M-0.09799999743700027,2.5820000171661377 C0.20000000298023224,2.5820000171661377 0.4860000014305115,2.5280001163482666 0.7599999904632568,2.4179999828338623 C1.0470000505447388,2.296999931335449 1.2970000505447388,2.125999927520752 1.5119999647140503,1.906999945640564 C1.7389999628067017,1.687999963760376 1.9179999828338623,1.4199999570846558 2.049999952316284,1.1039999723434448 C2.180999994277954,0.7879999876022339 2.246999979019165,0.4230000078678131 2.246999979019165,0.008999999612569809 C2.246999979019165,-0.36800000071525574 2.200000047683716,-0.7149999737739563 2.1040000915527344,-1.031000018119812 C2.009000062942505,-1.3480000495910645 1.8760000467300415,-1.6150000095367432 1.7089999914169312,-1.8350000381469727 C1.5420000553131104,-2.065000057220459 1.3450000286102295,-2.242000102996826 1.1180000305175781,-2.364000082015991 C0.890999972820282,-2.484999895095825 0.6480000019073486,-2.5460000038146973 0.38499999046325684,-2.5460000038146973 C0.07500000298023224,-2.5460000038146973 -0.2409999966621399,-2.490999937057495 -0.5640000104904175,-2.381999969482422 C-0.8740000128746033,-2.2850000858306885 -1.1549999713897705,-2.131999969482422 -1.406000018119812,-1.9249999523162842 C-1.656999945640564,-1.7309999465942383 -1.8660000562667847,-1.475000023841858 -2.0329999923706055,-1.159000039100647 C-2.187999963760376,-0.8550000190734863 -2.265000104904175,-0.5019999742507935 -2.265000104904175,-0.10100000351667404 C-2.265000104904175,0.2280000001192093 -2.2060000896453857,0.5569999814033508 -2.0869998931884766,0.8849999904632568 C-1.968000054359436,1.2020000219345093 -1.8049999475479126,1.4869999885559082 -1.6019999980926514,1.7430000305175781 C-1.3990000486373901,1.9989999532699585 -1.1670000553131104,2.2060000896453857 -0.9039999842643738,2.364000082015991 C-0.640999972820282,2.509999990463257 -0.37299999594688416,2.5820000171661377 -0.09799999743700027,2.5820000171661377z M-3.321000099182129,0.0820000022649765 C-3.321000099182129,-0.6850000023841858 -3.2209999561309814,-1.3350000381469727 -3.0179998874664307,-1.871000051498413 C-2.815000057220459,-2.4059998989105225 -2.5460000038146973,-2.8380000591278076 -2.2119998931884766,-3.1670000553131104 C-1.878000020980835,-3.506999969482422 -1.5019999742507935,-3.750999927520752 -1.0839999914169312,-3.8970000743865967 C-0.6660000085830688,-4.054999828338623 -0.24199999868869781,-4.133999824523926 0.18700000643730164,-4.133999824523926 C1.1779999732971191,-4.133999824523926 1.9479999542236328,-3.750999927520752 2.496999979019165,-2.9839999675750732 C3.0460000038146973,-2.2300000190734863 3.321000099182129,-1.2079999446868896 3.321000099182129,0.0820000022649765 C3.321000099182129,0.6899999976158142 3.2260000705718994,1.24399995803833 3.0350000858306885,1.7430000305175781 C2.8440001010894775,2.2290000915527344 2.5929999351501465,2.6559998989105225 2.2820000648498535,3.0199999809265137 C1.972000002861023,3.374000072479248 1.6150000095367432,3.6470000743865967 1.2089999914169312,3.8420000076293945 C0.8149999976158142,4.0370001792907715 0.4090000092983246,4.133999824523926 -0.00800000037997961,4.133999824523926 C-0.4620000123977661,4.133999824523926 -0.8930000066757202,4.01200008392334 -1.2990000247955322,3.7690000534057617 C-1.6929999589920044,3.513000011444092 -2.0450000762939453,3.190999984741211 -2.3550000190734863,2.802000045776367 C-2.6540000438690186,2.4119999408721924 -2.8910000324249268,1.9800000190734863 -3.071000099182129,1.50600004196167 C-3.23799991607666,1.0190000534057617 -3.321000099182129,0.5440000295639038 -3.321000099182129,0.0820000022649765z"></path></g><g opacity="1" transform="matrix(1,0,0,1,27.190000534057617,10.871000289916992)"><path fill="rgb(255,255,255)" fill-opacity="1" d=" M-1.246999979019165,-5.010000228881836 C-1.246999979019165,-5.35099983215332 -1.2000000476837158,-5.64300012588501 -1.1039999723434448,-5.886000156402588 C-1.0080000162124634,-6.130000114440918 -0.8529999852180481,-6.250999927520752 -0.6389999985694885,-6.250999927520752 C-0.4830000102519989,-6.250999927520752 -0.36399999260902405,-6.159999847412109 -0.2800000011920929,-5.9770002365112305 C-0.19699999690055847,-5.807000160217285 -0.1550000011920929,-5.63700008392334 -0.1550000011920929,-5.4670000076293945 C-0.1550000011920929,-5.4670000076293945 -0.2619999945163727,2.5820000171661377 -0.2619999945163727,2.5820000171661377 C-0.2619999945163727,2.5820000171661377 -0.2619999945163727,3.3489999771118164 -0.2619999945163727,3.3489999771118164 C-0.25,3.6040000915527344 -0.22599999606609344,3.8359999656677246 -0.19099999964237213,4.041999816894531 C-0.1550000011920929,4.236999988555908 -0.10700000077486038,4.394999980926514 -0.04699999839067459,4.517000198364258 C0.024000000208616257,4.638999938964844 0.11400000005960464,4.698999881744385 0.22100000083446503,4.698999881744385 C0.2930000126361847,4.698999881744385 0.3529999852180481,4.681000232696533 0.4000000059604645,4.644999980926514 C0.46000000834465027,4.5960001945495605 0.5139999985694885,4.547999858856201 0.5609999895095825,4.499000072479248 C0.609000027179718,4.449999809265137 0.6570000052452087,4.4070000648498535 0.7049999833106995,4.370999813079834 C0.7639999985694885,4.322999954223633 0.8299999833106995,4.297999858856201 0.9010000228881836,4.297999858856201 C1.0679999589920044,4.297999858856201 1.1820000410079956,4.382999897003174 1.2419999837875366,4.552999973297119 C1.3140000104904175,4.723999977111816 1.3489999771118164,4.900000095367432 1.3489999771118164,5.083000183105469 C1.3489999771118164,5.264999866485596 1.3070000410079956,5.428999900817871 1.2239999771118164,5.574999809265137 C1.1399999856948853,5.709000110626221 1.0390000343322754,5.830999851226807 0.9200000166893005,5.940999984741211 C0.8119999766349792,6.038000106811523 0.6919999718666077,6.117000102996826 0.5609999895095825,6.177999973297119 C0.4300000071525574,6.22599983215332 0.3109999895095825,6.250999927520752 0.2029999941587448,6.250999927520752 C-0.3580000102519989,6.250999927520752 -0.7580000162124634,6.073999881744385 -0.996999979019165,5.7210001945495605 C-1.2350000143051147,5.35699987411499 -1.3489999771118164,4.84499979019165 -1.3370000123977661,4.188000202178955 C-1.3370000123977661,4.188000202178955 -1.246999979019165,-5.010000228881836 -1.246999979019165,-5.010000228881836z"></path></g><g opacity="1" transform="matrix(1,0,0,1,31.190000534057617,10.871000289916992)"><path fill="rgb(255,255,255)" fill-opacity="1" d=" M-1.246999979019165,-5.010000228881836 C-1.246999979019165,-5.35099983215332 -1.2000000476837158,-5.64300012588501 -1.1039999723434448,-5.886000156402588 C-1.0080000162124634,-6.130000114440918 -0.8529999852180481,-6.250999927520752 -0.6389999985694885,-6.250999927520752 C-0.4830000102519989,-6.250999927520752 -0.36399999260902405,-6.159999847412109 -0.2800000011920929,-5.9770002365112305 C-0.19699999690055847,-5.807000160217285 -0.1550000011920929,-5.63700008392334 -0.1550000011920929,-5.4670000076293945 C-0.1550000011920929,-5.4670000076293945 -0.2619999945163727,2.5820000171661377 -0.2619999945163727,2.5820000171661377 C-0.2619999945163727,2.5820000171661377 -0.2619999945163727,3.3489999771118164 -0.2619999945163727,3.3489999771118164 C-0.25,3.6040000915527344 -0.22599999606609344,3.8359999656677246 -0.19099999964237213,4.041999816894531 C-0.1550000011920929,4.236999988555908 -0.10700000077486038,4.394999980926514 -0.04699999839067459,4.517000198364258 C0.024000000208616257,4.638999938964844 0.11400000005960464,4.698999881744385 0.22100000083446503,4.698999881744385 C0.2930000126361847,4.698999881744385 0.3529999852180481,4.681000232696533 0.4000000059604645,4.644999980926514 C0.46000000834465027,4.5960001945495605 0.5139999985694885,4.547999858856201 0.5609999895095825,4.499000072479248 C0.609000027179718,4.449999809265137 0.6570000052452087,4.4070000648498535 0.7049999833106995,4.370999813079834 C0.7639999985694885,4.322999954223633 0.8299999833106995,4.297999858856201 0.9010000228881836,4.297999858856201 C1.0679999589920044,4.297999858856201 1.1820000410079956,4.382999897003174 1.2419999837875366,4.552999973297119 C1.3140000104904175,4.723999977111816 1.3489999771118164,4.900000095367432 1.3489999771118164,5.083000183105469 C1.3489999771118164,5.264999866485596 1.3070000410079956,5.428999900817871 1.2239999771118164,5.574999809265137 C1.1399999856948853,5.709000110626221 1.0390000343322754,5.830999851226807 0.9200000166893005,5.940999984741211 C0.8119999766349792,6.038000106811523 0.6919999718666077,6.117000102996826 0.5609999895095825,6.177999973297119 C0.4300000071525574,6.22599983215332 0.3109999895095825,6.250999927520752 0.2029999941587448,6.250999927520752 C-0.3580000102519989,6.250999927520752 -0.7580000162124634,6.073999881744385 -0.996999979019165,5.7210001945495605 C-1.2350000143051147,5.35699987411499 -1.3489999771118164,4.84499979019165 -1.3370000123977661,4.188000202178955 C-1.3370000123977661,4.188000202178955 -1.246999979019165,-5.010000228881836 -1.246999979019165,-5.010000228881836z"></path></g><g opacity="1" transform="matrix(1,0,0,1,20.479999542236328,13.812999725341797)"><path fill="rgb(255,255,255)" fill-opacity="1" d=" M2.184000015258789,1.6319999694824219 C-1.0199999809265137,4.673999786376953 -3.7200000286102295,-2.0309998989105225 -0.460999995470047,-2.933000087738037 C-0.06300000101327896,-3.0429999828338623 0.4880000054836273,-3.0969998836517334 0.8999999761581421,-3.0239999294281006 C1.4149999618530273,-2.931999921798706 2.2880001068115234,-2.36899995803833 2.234999895095825,-1.7259999513626099 C2.1510000228881836,-0.6850000023841858 -0.2619999945163727,-1.1790000200271606 -0.9430000185966492,-1.1759999990463257 C-1.7480000257492065,-1.1729999780654907 -1.7489999532699585,0.07800000160932541 -0.9430000185966492,0.07500000298023224 C0.5659999847412109,0.0689999982714653 3.7200000286102295,0.7289999723434448 3.4809999465942383,-1.7649999856948853 C3.263000011444092,-4.046999931335449 0.8309999704360962,-4.673999786376953 -1.0420000553131104,-4.076000213623047 C-3.3340001106262207,-3.3450000286102295 -3.6089999675750732,-0.12200000137090683 -2.624000072479248,1.7430000305175781 C-1.468000054359436,3.931999921798706 1.3559999465942383,4.139999866485596 3.066999912261963,2.5160000324249268 C3.6510000228881836,1.9609999656677246 2.7669999599456787,1.0779999494552612 2.184000015258789,1.6319999694824219z"></path></g></g></g></g></svg>